<?xml version="1.0" encoding="UTF-8"?>
<!-- Generated by jsxcad -->
<!DOCTYPE svg PUBLIC "-//W3C//DTD SVG 1.1 Tiny//EN" "http://www.w3.org/Graphics/SVG/1.1/DTD/svg11-tiny.dtd">
<svg baseProfile="tiny" height="14.50000000000001mm" width="306.0000000000002mm" viewBox="-2e-323 -8.500000000000007 306.0000000000002 14.50000000000001" version="1.1" stroke="black" stroke-width=".1" fill="none" xmlns="http://www.w3.org/2000/svg">
<path fill="#a52a2a" stroke="#a52a2a" d="M0 0 L6 0 L6 0 L0 0 z"/>
<path fill="#a52a2a" stroke="#a52a2a" d="M0 -6 L0 0 L0 0 L0 -6 z"/>
<path fill="#a52a2a" stroke="#a52a2a" d="M6 -6 L0 -6 L0 -6 L6 -6 z"/>
<path fill="#a52a2a" stroke="#a52a2a" d="M6 0 L6 -6 L6 -6 L6 0 z"/>
<path fill="#a52a2a" stroke="#a52a2a" d="M0 0 L6 0 L6 -5.999999999999999 L0 -5.999999999999999 z"/>
<path fill="#a52a2a" stroke="#a52a2a" d="M6 0 L0 0 L0 -5.999999999999999 L6 -5.999999999999999 z"/>
<path fill="#a52a2a" stroke="#a52a2a" d="M48 8.5 L48 8.5 L54 8.5 L54 8.5 z"/>
<path fill="#a52a2a" stroke="#a52a2a" d="M48 2.5 L48 2.5 L48 8.5 L48 8.5 z"/>
<path fill="#a52a2a" stroke="#a52a2a" d="M54 2.5 L54 2.5 L48 2.5 L48 2.5 z"/>
<path fill="#a52a2a" stroke="#a52a2a" d="M54 8.5 L54 8.5 L54 2.5 L54 2.5 z"/>
<path fill="#a52a2a" stroke="#a52a2a" d="M48 8.499999999999998 L54 8.499999999999998 L54 2.4999999999999996 L48 2.4999999999999996 z"/>
<path fill="#a52a2a" stroke="#a52a2a" d="M48 8.499999999999998 L48 2.4999999999999996 L54 2.4999999999999996 L54 8.499999999999998 z"/>
<path fill="#a52a2a" stroke="#a52a2a" d="M100 8.5 L100 8.5 L106 8.5 L106 8.5 z"/>
<path fill="#a52a2a" stroke="#a52a2a" d="M100 2.5 L100 2.5 L100 8.5 L100 8.5 z"/>
<path fill="#a52a2a" stroke="#a52a2a" d="M106 2.5 L106 2.5 L100 2.5 L100 2.5 z"/>
<path fill="#a52a2a" stroke="#a52a2a" d="M106 8.5 L106 8.5 L106 2.5 L106 2.5 z"/>
<path fill="#a52a2a" stroke="#a52a2a" d="M100 8.499999999999998 L106 8.499999999999998 L106 2.4999999999999996 L100 2.4999999999999996 z"/>
<path fill="#a52a2a" stroke="#a52a2a" d="M100 8.499999999999998 L100 2.4999999999999996 L106 2.4999999999999996 L106 8.499999999999998 z"/>
<path fill="#a52a2a" stroke="#a52a2a" d="M152 8.5 L152 8.5 L158 8.5 L158 8.5 z"/>
<path fill="#a52a2a" stroke="#a52a2a" d="M152 2.5 L152 2.5 L152 8.5 L152 8.5 z"/>
<path fill="#a52a2a" stroke="#a52a2a" d="M158 2.5 L158 2.5 L152 2.5 L152 2.5 z"/>
<path fill="#a52a2a" stroke="#a52a2a" d="M158 8.5 L158 8.5 L158 2.5 L158 2.5 z"/>
<path fill="#a52a2a" stroke="#a52a2a" d="M152 8.499999999999998 L158 8.499999999999998 L158 2.4999999999999996 L152 2.4999999999999996 z"/>
<path fill="#a52a2a" stroke="#a52a2a" d="M152 8.499999999999998 L152 2.4999999999999996 L158 2.4999999999999996 L158 8.499999999999998 z"/>
<path fill="#a52a2a" stroke="#a52a2a" d="M204 8.5 L204 8.5 L210 8.5 L210 8.5 z"/>
<path fill="#a52a2a" stroke="#a52a2a" d="M204 2.5 L204 2.5 L204 8.5 L204 8.5 z"/>
<path fill="#a52a2a" stroke="#a52a2a" d="M210 2.5 L210 2.5 L204 2.5 L204 2.5 z"/>
<path fill="#a52a2a" stroke="#a52a2a" d="M210 8.5 L210 8.5 L210 2.5 L210 2.5 z"/>
<path fill="#a52a2a" stroke="#a52a2a" d="M204 8.499999999999998 L210 8.499999999999998 L210 2.4999999999999996 L204 2.4999999999999996 z"/>
<path fill="#a52a2a" stroke="#a52a2a" d="M204 8.499999999999998 L204 2.4999999999999996 L210 2.4999999999999996 L210 8.499999999999998 z"/>
<path fill="#a52a2a" stroke="#a52a2a" d="M256 8.5 L256 8.5 L262 8.5 L262 8.5 z"/>
<path fill="#a52a2a" stroke="#a52a2a" d="M256 2.5 L256 2.5 L256 8.5 L256 8.5 z"/>
<path fill="#a52a2a" stroke="#a52a2a" d="M262 2.5 L262 2.5 L256 2.5 L256 2.5 z"/>
<path fill="#a52a2a" stroke="#a52a2a" d="M262 8.5 L262 8.5 L262 2.5 L262 2.5 z"/>
<path fill="#a52a2a" stroke="#a52a2a" d="M256 8.499999999999998 L262 8.499999999999998 L262 2.4999999999999996 L256 2.4999999999999996 z"/>
<path fill="#a52a2a" stroke="#a52a2a" d="M256 8.499999999999998 L256 2.4999999999999996 L262 2.4999999999999996 L262 8.499999999999998 z"/>
<path fill="#a52a2a" stroke="#a52a2a" d="M300 8.5 L306 8.5 L306 8.5 L300 8.5 z"/>
<path fill="#a52a2a" stroke="#a52a2a" d="M300 2.5 L300 8.5 L300 8.5 L300 2.5 z"/>
<path fill="#a52a2a" stroke="#a52a2a" d="M306 2.5 L300 2.5 L300 2.5 L306 2.5 z"/>
<path fill="#a52a2a" stroke="#a52a2a" d="M306 8.5 L306 2.5 L306 2.5 L306 8.5 z"/>
<path fill="#a52a2a" stroke="#a52a2a" d="M300 2.4999999999999996 L300 8.499999999999998 L306 8.499999999999998 L306 2.4999999999999996 z"/>
<path fill="#a52a2a" stroke="#a52a2a" d="M300 8.499999999999998 L300 2.4999999999999996 L306 2.4999999999999996 L306 8.499999999999998 z"/>
<path fill="#4682b4" stroke="#4682b4" d="M0 1.75 L0 1.75 L96 1.75 L96 1.75 z"/>
<path fill="#4682b4" stroke="#4682b4" d="M0 0.24999999999999997 L0 1.7499999999999998 L96 1.7499999999999998 L96 0.24999999999999997 z"/>
<path fill="#4682b4" stroke="#4682b4" d="M0 0.25 L0 0.25 L96 0.25 L96 0.25 z"/>
<path fill="#4682b4" stroke="#4682b4" d="M0 1.7499999999999998 L0 0.24999999999999997 L96 0.24999999999999997 L96 1.7499999999999998 z"/>
<path fill="#4682b4" stroke="#4682b4" d="M96 0.25 L96 1.75 L96 1.75 L96 0.25 z"/>
<path fill="#4682b4" stroke="#4682b4" d="M0 1.75 L0 0.25 L0 0.25 L0 1.75 z"/>
<path fill="#4682b4" stroke="#4682b4" d="M96 1.75 L0 1.75 L0 1.75 L96 1.75 z"/>
<path fill="#4682b4" stroke="#4682b4" d="M96 0.24999999999999997 L0 0.24999999999999997 L0 1.7499999999999998 L96 1.7499999999999998 z"/>
<path fill="#4682b4" stroke="#4682b4" d="M96 0.25 L0 0.25 L0 0.25 L96 0.25 z"/>
<path fill="#4682b4" stroke="#4682b4" d="M96 1.7499999999999998 L0 1.7499999999999998 L0 0.24999999999999997 L96 0.24999999999999997 z"/>
<path fill="#4682b4" stroke="#4682b4" d="M96 1.75 L96 1.75 L96 0.25 L96 0.25 z"/>
<path fill="#4682b4" stroke="#4682b4" d="M0 1.75 L0 0.25 L0 0.25 L0 1.75 z"/>
<path fill="#4682b4" stroke="#4682b4" d="M146 1.75 L50 1.75 L50 1.75 L146 1.75 z"/>
<path fill="#4682b4" stroke="#4682b4" d="M146 0.24999999999999997 L50 0.24999999999999997 L50 1.7499999999999998 L146 1.7499999999999998 z"/>
<path fill="#4682b4" stroke="#4682b4" d="M146 0.25 L50 0.25 L50 0.25 L146 0.25 z"/>
<path fill="#4682b4" stroke="#4682b4" d="M146 1.7499999999999998 L50 1.7499999999999998 L50 0.24999999999999997 L146 0.24999999999999997 z"/>
<path fill="#4682b4" stroke="#4682b4" d="M146 1.75 L146 1.75 L146 0.25 L146 0.25 z"/>
<path fill="#4682b4" stroke="#4682b4" d="M50 1.75 L50 0.25 L50 0.25 L50 1.75 z"/>
</svg>