<?xml version="1.0" encoding="UTF-8"?>
<!-- Generated by jsxcad -->
<!DOCTYPE svg PUBLIC "-//W3C//DTD SVG 1.1 Tiny//EN" "http://www.w3.org/Graphics/SVG/1.1/DTD/svg11-tiny.dtd">
<svg baseProfile="tiny" height="14.50000000000001mm" width="432.0000000000002mm" viewBox="-2e-323 -8.500000000000007 432.0000000000002 14.50000000000001" version="1.1" stroke="black" stroke-width=".1" fill="none" xmlns="http://www.w3.org/2000/svg">
<path fill="#a52a2a" stroke="#a52a2a" d="M0 0 L6 0 L6 0 L0 0 z"/>
<path fill="#a52a2a" stroke="#a52a2a" d="M0 -6 L0 0 L0 0 L0 -6 z"/>
<path fill="#a52a2a" stroke="#a52a2a" d="M6 -6 L0 -6 L0 -6 L6 -6 z"/>
<path fill="#a52a2a" stroke="#a52a2a" d="M6 0 L6 -6 L6 -6 L6 0 z"/>
<path fill="#a52a2a" stroke="#a52a2a" d="M0 0 L6 0 L6 -5.999999999999999 L0 -5.999999999999999 z"/>
<path fill="#a52a2a" stroke="#a52a2a" d="M6 0 L0 0 L0 -5.999999999999999 L6 -5.999999999999999 z"/>
<path fill="#a52a2a" stroke="#a52a2a" d="M45 8.5 L45 8.5 L51 8.5 L51 8.5 z"/>
<path fill="#a52a2a" stroke="#a52a2a" d="M45 2.5 L45 2.5 L45 8.5 L45 8.5 z"/>
<path fill="#a52a2a" stroke="#a52a2a" d="M51 2.5 L51 2.5 L45 2.5 L45 2.5 z"/>
<path fill="#a52a2a" stroke="#a52a2a" d="M51 8.5 L51 8.5 L51 2.5 L51 2.5 z"/>
<path fill="#a52a2a" stroke="#a52a2a" d="M45 8.499999999999998 L51 8.499999999999998 L51 2.4999999999999996 L45 2.4999999999999996 z"/>
<path fill="#a52a2a" stroke="#a52a2a" d="M45 8.499999999999998 L45 2.4999999999999996 L51 2.4999999999999996 L51 8.499999999999998 z"/>
<path fill="#a52a2a" stroke="#a52a2a" d="M93 8.5 L93 8.5 L99 8.5 L99 8.5 z"/>
<path fill="#a52a2a" stroke="#a52a2a" d="M93 2.5 L93 2.5 L93 8.5 L93 8.5 z"/>
<path fill="#a52a2a" stroke="#a52a2a" d="M99 2.5 L99 2.5 L93 2.5 L93 2.5 z"/>
<path fill="#a52a2a" stroke="#a52a2a" d="M99 8.5 L99 8.5 L99 2.5 L99 2.5 z"/>
<path fill="#a52a2a" stroke="#a52a2a" d="M93 8.499999999999998 L99 8.499999999999998 L99 2.4999999999999996 L93 2.4999999999999996 z"/>
<path fill="#a52a2a" stroke="#a52a2a" d="M93 8.499999999999998 L93 2.4999999999999996 L99 2.4999999999999996 L99 8.499999999999998 z"/>
<path fill="#a52a2a" stroke="#a52a2a" d="M141 8.5 L141 8.5 L147 8.5 L147 8.5 z"/>
<path fill="#a52a2a" stroke="#a52a2a" d="M141 2.5 L141 2.5 L141 8.5 L141 8.5 z"/>
<path fill="#a52a2a" stroke="#a52a2a" d="M147 2.5 L147 2.5 L141 2.5 L141 2.5 z"/>
<path fill="#a52a2a" stroke="#a52a2a" d="M147 8.5 L147 8.5 L147 2.5 L147 2.5 z"/>
<path fill="#a52a2a" stroke="#a52a2a" d="M141 8.499999999999998 L147 8.499999999999998 L147 2.4999999999999996 L141 2.4999999999999996 z"/>
<path fill="#a52a2a" stroke="#a52a2a" d="M141 8.499999999999998 L141 2.4999999999999996 L147 2.4999999999999996 L147 8.499999999999998 z"/>
<path fill="#a52a2a" stroke="#a52a2a" d="M189 8.5 L189 8.5 L195 8.5 L195 8.5 z"/>
<path fill="#a52a2a" stroke="#a52a2a" d="M189 2.5 L189 2.5 L189 8.5 L189 8.5 z"/>
<path fill="#a52a2a" stroke="#a52a2a" d="M195 2.5 L195 2.5 L189 2.5 L189 2.5 z"/>
<path fill="#a52a2a" stroke="#a52a2a" d="M195 8.5 L195 8.5 L195 2.5 L195 2.5 z"/>
<path fill="#a52a2a" stroke="#a52a2a" d="M189 8.499999999999998 L195 8.499999999999998 L195 2.4999999999999996 L189 2.4999999999999996 z"/>
<path fill="#a52a2a" stroke="#a52a2a" d="M189 8.499999999999998 L189 2.4999999999999996 L195 2.4999999999999996 L195 8.499999999999998 z"/>
<path fill="#a52a2a" stroke="#a52a2a" d="M237 8.5 L237 8.5 L243 8.5 L243 8.5 z"/>
<path fill="#a52a2a" stroke="#a52a2a" d="M237 2.5 L237 2.5 L237 8.5 L237 8.5 z"/>
<path fill="#a52a2a" stroke="#a52a2a" d="M243 2.5 L243 2.5 L237 2.5 L237 2.5 z"/>
<path fill="#a52a2a" stroke="#a52a2a" d="M243 8.5 L243 8.5 L243 2.5 L243 2.5 z"/>
<path fill="#a52a2a" stroke="#a52a2a" d="M237 8.499999999999998 L243 8.499999999999998 L243 2.4999999999999996 L237 2.4999999999999996 z"/>
<path fill="#a52a2a" stroke="#a52a2a" d="M237 8.499999999999998 L237 2.4999999999999996 L243 2.4999999999999996 L243 8.499999999999998 z"/>
<path fill="#a52a2a" stroke="#a52a2a" d="M282 8.5 L288 8.5 L288 8.5 L282 8.5 z"/>
<path fill="#a52a2a" stroke="#a52a2a" d="M282 2.5 L282 8.5 L282 8.5 L282 2.5 z"/>
<path fill="#a52a2a" stroke="#a52a2a" d="M288 2.5 L282 2.5 L282 2.5 L288 2.5 z"/>
<path fill="#a52a2a" stroke="#a52a2a" d="M288 8.5 L288 2.5 L288 2.5 L288 8.5 z"/>
<path fill="#a52a2a" stroke="#a52a2a" d="M282 2.4999999999999996 L282 8.499999999999998 L288 8.499999999999998 L288 2.4999999999999996 z"/>
<path fill="#a52a2a" stroke="#a52a2a" d="M282 8.499999999999998 L282 2.4999999999999996 L288 2.4999999999999996 L288 8.499999999999998 z"/>
<path fill="#4682b4" stroke="#4682b4" d="M288 1.75 L144 1.75 L144 1.75 L288 1.75 z"/>
<path fill="#4682b4" stroke="#4682b4" d="M288 0.24999999999999997 L144 0.24999999999999997 L144 1.7499999999999998 L288 1.7499999999999998 z"/>
<path fill="#4682b4" stroke="#4682b4" d="M288 0.25 L144 0.25 L144 0.25 L288 0.25 z"/>
<path fill="#4682b4" stroke="#4682b4" d="M288 1.7499999999999998 L144 1.7499999999999998 L144 0.24999999999999997 L288 0.24999999999999997 z"/>
<path fill="#4682b4" stroke="#4682b4" d="M288 1.75 L288 1.75 L288 0.25 L288 0.25 z"/>
<path fill="#4682b4" stroke="#4682b4" d="M144 1.75 L144 0.25 L144 0.25 L144 1.75 z"/>
<path fill="#4682b4" stroke="#4682b4" d="M240 1.75 L240 1.75 L384 1.75 L384 1.75 z"/>
<path fill="#4682b4" stroke="#4682b4" d="M240 0.24999999999999997 L240 1.7499999999999998 L384 1.7499999999999998 L384 0.24999999999999997 z"/>
<path fill="#4682b4" stroke="#4682b4" d="M240 0.25 L240 0.25 L384 0.25 L384 0.25 z"/>
<path fill="#4682b4" stroke="#4682b4" d="M240 1.7499999999999998 L240 0.24999999999999997 L384 0.24999999999999997 L384 1.7499999999999998 z"/>
<path fill="#4682b4" stroke="#4682b4" d="M384 1.75 L384 1.75 L384 0.25 L384 0.25 z"/>
<path fill="#4682b4" stroke="#4682b4" d="M240 1.75 L240 1.75 L240 0.25 L240 0.25 z"/>
<path fill="#4682b4" stroke="#4682b4" d="M192 1.75 L192 1.75 L336 1.75 L336 1.75 z"/>
<path fill="#4682b4" stroke="#4682b4" d="M192 0.24999999999999997 L192 1.7499999999999998 L336 1.7499999999999998 L336 0.24999999999999997 z"/>
<path fill="#4682b4" stroke="#4682b4" d="M192 0.25 L192 0.25 L336 0.25 L336 0.25 z"/>
<path fill="#4682b4" stroke="#4682b4" d="M192 1.7499999999999998 L192 0.24999999999999997 L336 0.24999999999999997 L336 1.7499999999999998 z"/>
<path fill="#4682b4" stroke="#4682b4" d="M336 1.75 L336 1.75 L336 0.25 L336 0.25 z"/>
<path fill="#4682b4" stroke="#4682b4" d="M192 1.75 L192 1.75 L192 0.25 L192 0.25 z"/>
<path fill="#4682b4" stroke="#4682b4" d="M288 1.75 L288 1.75 L432 1.75 L432 1.75 z"/>
<path fill="#4682b4" stroke="#4682b4" d="M288 0.24999999999999997 L288 1.7499999999999998 L432 1.7499999999999998 L432 0.24999999999999997 z"/>
<path fill="#4682b4" stroke="#4682b4" d="M288 0.25 L288 0.25 L432 0.25 L432 0.25 z"/>
<path fill="#4682b4" stroke="#4682b4" d="M288 1.7499999999999998 L288 0.24999999999999997 L432 0.24999999999999997 L432 1.7499999999999998 z"/>
<path fill="#4682b4" stroke="#4682b4" d="M432 1.75 L432 1.75 L432 0.25 L432 0.25 z"/>
<path fill="#4682b4" stroke="#4682b4" d="M288 1.75 L288 1.75 L288 0.25 L288 0.25 z"/>
<path fill="#4682b4" stroke="#4682b4" d="M0 1.75 L0 1.75 L144 1.75 L144 1.75 z"/>
<path fill="#4682b4" stroke="#4682b4" d="M0 0.24999999999999997 L0 1.7499999999999998 L144 1.7499999999999998 L144 0.24999999999999997 z"/>
<path fill="#4682b4" stroke="#4682b4" d="M0 0.25 L0 0.25 L144 0.25 L144 0.25 z"/>
<path fill="#4682b4" stroke="#4682b4" d="M0 1.7499999999999998 L0 0.24999999999999997 L144 0.24999999999999997 L144 1.7499999999999998 z"/>
<path fill="#4682b4" stroke="#4682b4" d="M144 0.25 L144 1.75 L144 1.75 L144 0.25 z"/>
<path fill="#4682b4" stroke="#4682b4" d="M0 1.75 L0 0.25 L0 0.25 L0 1.75 z"/>
<path fill="#4682b4" stroke="#4682b4" d="M240 1.75 L96 1.75 L96 1.75 L240 1.75 z"/>
<path fill="#4682b4" stroke="#4682b4" d="M240 0.24999999999999997 L96 0.24999999999999997 L96 1.7499999999999998 L240 1.7499999999999998 z"/>
<path fill="#4682b4" stroke="#4682b4" d="M240 0.25 L96 0.25 L96 0.25 L240 0.25 z"/>
<path fill="#4682b4" stroke="#4682b4" d="M240 1.7499999999999998 L96 1.7499999999999998 L96 0.24999999999999997 L240 0.24999999999999997 z"/>
<path fill="#4682b4" stroke="#4682b4" d="M240 1.75 L240 1.75 L240 0.25 L240 0.25 z"/>
<path fill="#4682b4" stroke="#4682b4" d="M96 1.75 L96 0.25 L96 0.25 L96 1.75 z"/>
<path fill="#4682b4" stroke="#4682b4" d="M192 1.75 L48 1.75 L48 1.75 L192 1.75 z"/>
<path fill="#4682b4" stroke="#4682b4" d="M192 0.24999999999999997 L48 0.24999999999999997 L48 1.7499999999999998 L192 1.7499999999999998 z"/>
<path fill="#4682b4" stroke="#4682b4" d="M192 0.25 L48 0.25 L48 0.25 L192 0.25 z"/>
<path fill="#4682b4" stroke="#4682b4" d="M192 1.7499999999999998 L48 1.7499999999999998 L48 0.24999999999999997 L192 0.24999999999999997 z"/>
<path fill="#4682b4" stroke="#4682b4" d="M192 1.75 L192 1.75 L192 0.25 L192 0.25 z"/>
<path fill="#4682b4" stroke="#4682b4" d="M48 1.75 L48 0.25 L48 0.25 L48 1.75 z"/>
<path fill="#4682b4" stroke="#4682b4" d="M288 1.75 L144 1.75 L144 1.75 L288 1.75 z"/>
<path fill="#4682b4" stroke="#4682b4" d="M288 0.24999999999999997 L144 0.24999999999999997 L144 1.7499999999999998 L288 1.7499999999999998 z"/>
<path fill="#4682b4" stroke="#4682b4" d="M288 0.25 L144 0.25 L144 0.25 L288 0.25 z"/>
<path fill="#4682b4" stroke="#4682b4" d="M288 1.7499999999999998 L144 1.7499999999999998 L144 0.24999999999999997 L288 0.24999999999999997 z"/>
<path fill="#4682b4" stroke="#4682b4" d="M288 1.75 L288 1.75 L288 0.25 L288 0.25 z"/>
<path fill="#4682b4" stroke="#4682b4" d="M144 1.75 L144 0.25 L144 0.25 L144 1.75 z"/>
</svg>