<?xml version="1.0" encoding="UTF-8"?>
<!-- Generated by jsxcad -->
<!DOCTYPE svg PUBLIC "-//W3C//DTD SVG 1.1 Tiny//EN" "http://www.w3.org/Graphics/SVG/1.1/DTD/svg11-tiny.dtd">
<svg baseProfile="tiny" height="271.62639593908636mm" width="14.500000000000007mm" viewBox="-8.500000000000004 -65.91675126903556 14.500000000000007 271.62639593908636" version="1.1" stroke="black" stroke-width=".1" fill="none" xmlns="http://www.w3.org/2000/svg">
<path fill="#e2c66c" stroke="#e2c66c" d="M6 -6.16243654822335 L6 61.67106598984771 L6 65.91675126903553 L6 -1.9167512690355328 z"/>
<path fill="#e2c66c" stroke="#e2c66c" d="M0 -6.162436548223351 L0 61.671065989847676 L6 61.671065989847676 L6 -6.162436548223351 z"/>
<path fill="#e2c66c" stroke="#e2c66c" d="M0 -1.9167512690355328 L0 65.91675126903553 L0 61.67106598984771 L0 -6.16243654822335 z"/>
<path fill="#e2c66c" stroke="#e2c66c" d="M6 -1.9167512690355468 L6 65.9167512690355 L0 65.9167512690355 L0 -1.9167512690355468 z"/>
<path fill="#e2c66c" stroke="#e2c66c" d="M6 -6.16243654822335 L6 -1.9167512690355326 L0 -1.9167512690355326 L0 -6.16243654822335 z"/>
<path fill="#e2c66c" stroke="#e2c66c" d="M6 61.671065989847705 L0 61.671065989847705 L0 65.91675126903553 L6 65.91675126903553 z"/>
<path fill="#bababa" stroke="#bababa" d="M-4.733333333333332 -36.33712835387961 L-4.733333333333321 31.49637418419144 L-4.499999999999995 31.95126903553299 L-4.499999999999992 -35.882233502538064 z"/>
<path fill="#bababa" stroke="#bababa" d="M-5.326086956521738 -36.578434583265114 L-5.326086956521738 31.255067954805956 L-4.7333333333333325 31.49637418419144 L-4.7333333333333325 -36.337128353879635 z"/>
<path fill="#bababa" stroke="#bababa" d="M-4.500000000000007 -35.882233502538064 L-4.500000000000004 31.95126903553299 L-4.733333333333344 32.40616388687454 L-4.7333333333333405 -35.427338651196514 z"/>
<path fill="#bababa" stroke="#bababa" d="M-6.439393939393947 -36.124844089920224 L-6.439393939393944 31.708658448150832 L-6.000000000000016 31.33800338409475 L-6.000000000000005 -36.495499153976304 z"/>
<path fill="#bababa" stroke="#bababa" d="M-6.439393939393939 -35.639622915155904 L-6.439393939393939 32.193879622915155 L-6.439393939393939 31.708658448150832 L-6.439393939393939 -36.12484408992023 z"/>
<path fill="#bababa" stroke="#bababa" d="M-5.999999999999991 -35.268967851099816 L-5.999999999999987 32.56453468697123 L-6.439393939393936 32.193879622915155 L-6.439393939393933 -35.639622915155904 z"/>
<path fill="#bababa" stroke="#bababa" d="M-5.999999999999999 -36.49549915397633 L-5.999999999999999 31.338003384094744 L-5.326086956521738 31.255067954805952 L-5.326086956521738 -36.57843458326513 z"/>
<path fill="#bababa" stroke="#bababa" d="M-4.7333333333333325 -35.427338651196536 L-4.7333333333333325 32.40616388687454 L-5.326086956521738 32.647470116260024 L-5.326086956521738 -35.18603242181105 z"/>
<path fill="#bababa" stroke="#bababa" d="M-5.326086956521738 -35.18603242181105 L-5.326086956521738 32.64747011625999 L-5.999999999999999 32.56453468697119 L-5.999999999999999 -35.268967851099845 z"/>
<path fill="#bababa" stroke="#bababa" d="M-4.7333333333333325 -36.33712835387961 L-4.5 -35.882233502538064 L-4.7333333333333325 -35.42733865119651 L-5.326086956521738 -35.18603242181103 L-6 -35.26896785109982 L-6.439393939393939 -35.639622915155904 L-6.439393939393939 -36.124844089920224 L-6 -36.495499153976304 L-5.326086956521738 -36.5784345832651 z"/>
<path fill="#bababa" stroke="#bababa" d="M-4.7333333333333325 31.49637418419144 L-5.326086956521738 31.255067954805952 L-6 31.33800338409475 L-6.439393939393939 31.708658448150832 L-6.439393939393939 32.19387962291515 L-6 32.56453468697123 L-5.326086956521738 32.647470116260024 L-4.7333333333333325 32.40616388687454 L-4.5 31.95126903553299 z"/>
<path fill="#bababa" stroke="#bababa" d="M-4.733333333333328 -70.30261058738215 L-4.733333333333324 -2.469108049311096 L-4.499999999999997 -2.0142131979695423 L-4.499999999999996 -69.8477157360406 z"/>
<path fill="#bababa" stroke="#bababa" d="M-5.326086956521738 -70.54391681676765 L-5.326086956521738 -2.7104142786966055 L-4.7333333333333325 -2.4691080493111226 L-4.7333333333333325 -70.30261058738216 z"/>
<path fill="#bababa" stroke="#bababa" d="M-4.5000000000000036 -69.8477157360406 L-4.500000000000002 -2.0142131979695423 L-4.733333333333341 -1.5593183466279923 L-4.733333333333337 -69.39282088469905 z"/>
<path fill="#bababa" stroke="#bababa" d="M-6.439393939393969 -70.09032632342276 L-6.4393939393939625 -2.256823785351705 L-6.00000000000001 -2.6274788494077805 L-6.000000000000017 -70.46098138747882 z"/>
<path fill="#bababa" stroke="#bababa" d="M-6.439393939393939 -69.60510514865844 L-6.439393939393939 -1.771602610587382 L-6.439393939393939 -2.256823785351704 L-6.439393939393939 -70.09032632342276 z"/>
<path fill="#bababa" stroke="#bababa" d="M-5.999999999999993 -69.23445008460236 L-5.999999999999993 -1.4009475465313033 L-6.439393939393918 -1.7716026105873803 L-6.439393939393911 -69.60510514865842 z"/>
<path fill="#bababa" stroke="#bababa" d="M-5.999999999999999 -70.46098138747885 L-5.999999999999999 -2.627478849407817 L-5.326086956521738 -2.7104142786966112 L-5.326086956521738 -70.54391681676765 z"/>
<path fill="#bababa" stroke="#bababa" d="M-4.7333333333333325 -69.39282088469906 L-4.7333333333333325 -1.5593183466280216 L-5.326086956521738 -1.318012117242539 L-5.326086956521738 -69.15151465531358 z"/>
<path fill="#bababa" stroke="#bababa" d="M-5.326086956521738 -69.15151465531358 L-5.326086956521738 -1.3180121172425325 L-5.999999999999999 -1.4009475465313268 L-5.999999999999999 -69.23445008460237 z"/>
<path fill="#bababa" stroke="#bababa" d="M-4.7333333333333325 -70.30261058738215 L-4.5 -69.8477157360406 L-4.7333333333333325 -69.39282088469905 L-5.326086956521738 -69.15151465531356 L-6 -69.23445008460236 L-6.439393939393939 -69.60510514865844 L-6.439393939393939 -70.09032632342276 L-6 -70.46098138747884 L-5.326086956521738 -70.54391681676763 z"/>
<path fill="#bababa" stroke="#bababa" d="M-4.7333333333333325 -2.4691080493110946 L-5.326086956521738 -2.710414278696577 L-6 -2.6274788494077828 L-6.439393939393939 -2.256823785351704 L-6.439393939393939 -1.7716026105873819 L-6 -1.4009475465313028 L-5.326086956521738 -1.3180121172425083 L-4.7333333333333325 -1.5593183466279912 L-4.5 -2.014213197969543 z"/>
<path fill="#bababa" stroke="#bababa" d="M-4.733333333333331 -104.26809282088469 L-4.733333333333326 -36.43459028281362 L-4.499999999999986 -35.979695431472074 L-4.49999999999999 -103.81319796954314 z"/>
<path fill="#bababa" stroke="#bababa" d="M-5.326086956521738 -104.5093990502702 L-5.326086956521738 -36.67589651219913 L-4.7333333333333325 -36.434590282813645 L-4.7333333333333325 -104.26809282088472 z"/>
<path fill="#bababa" stroke="#bababa" d="M-4.500000000000009 -103.81319796954314 L-4.500000000000013 -35.979695431472074 L-4.733333333333339 -35.524800580130524 L-4.7333333333333485 -103.35830311820159 z"/>
<path fill="#bababa" stroke="#bababa" d="M-6.439393939393963 -104.05580855692529 L-6.439393939393957 -36.22230601885423 L-6.000000000000025 -36.59296108291032 L-6.000000000000011 -104.42646362098137 z"/>
<path fill="#bababa" stroke="#bababa" d="M-6.439393939393939 -103.57058738216098 L-6.439393939393939 -35.737084844089914 L-6.439393939393939 -36.22230601885424 L-6.439393939393939 -104.0558085569253 z"/>
<path fill="#bababa" stroke="#bababa" d="M-5.999999999999978 -103.19993231810491 L-5.999999999999971 -35.36642978003383 L-6.4393939393939235 -35.73708484408991 L-6.439393939393917 -103.57058738216097 z"/>
<path fill="#bababa" stroke="#bababa" d="M-5.999999999999999 -104.42646362098138 L-5.999999999999999 -36.592961082910335 L-5.326086956521738 -36.67589651219913 L-5.326086956521738 -104.50939905027018 z"/>
<path fill="#bababa" stroke="#bababa" d="M-4.7333333333333325 -103.35830311820162 L-4.7333333333333325 -35.52480058013058 L-5.326086956521738 -35.2834943507451 L-5.326086956521738 -103.11699688881615 z"/>
<path fill="#bababa" stroke="#bababa" d="M-5.326086956521738 -103.11699688881613 L-5.326086956521738 -35.28349435074505 L-5.999999999999999 -35.36642978003385 L-5.999999999999999 -103.19993231810493 z"/>
<path fill="#bababa" stroke="#bababa" d="M-4.7333333333333325 -104.26809282088469 L-4.5 -103.81319796954314 L-4.7333333333333325 -103.35830311820158 L-5.326086956521738 -103.1169968888161 L-6 -103.1999323181049 L-6.439393939393939 -103.57058738216097 L-6.439393939393939 -104.0558085569253 L-6 -104.42646362098138 L-5.326086956521738 -104.50939905027018 z"/>
<path fill="#bababa" stroke="#bababa" d="M-4.7333333333333325 -36.43459028281362 L-5.326086956521738 -36.67589651219911 L-6 -36.592961082910314 L-6.439393939393939 -36.22230601885423 L-6.439393939393939 -35.737084844089914 L-6 -35.36642978003383 L-5.326086956521738 -35.28349435074504 L-4.7333333333333325 -35.524800580130524 L-4.5 -35.979695431472074 z"/>
<path fill="#bababa" stroke="#bababa" d="M-4.733333333333316 -138.2335750543872 L-4.733333333333328 -70.40007251631616 L-4.4999999999999885 -69.94517766497461 L-4.499999999999993 -137.77868020304567 z"/>
<path fill="#bababa" stroke="#bababa" d="M-5.326086956521738 -138.47488128377273 L-5.326086956521738 -70.64137874570169 L-4.7333333333333325 -70.40007251631621 L-4.7333333333333325 -138.23357505438725 z"/>
<path fill="#bababa" stroke="#bababa" d="M-4.500000000000006 -137.77868020304567 L-4.500000000000011 -69.94517766497461 L-4.733333333333337 -69.49028281363304 L-4.733333333333349 -137.3237853517041 z"/>
<path fill="#bababa" stroke="#bababa" d="M-6.4393939393939705 -138.0212907904278 L-6.439393939393951 -70.18778825235677 L-6.0000000000000195 -70.55844331641285 L-6.000000000000039 -138.39194585448388 z"/>
<path fill="#bababa" stroke="#bababa" d="M-6.439393939393939 -137.5360696156635 L-6.439393939393939 -69.70256707759245 L-6.439393939393939 -70.18778825235677 L-6.439393939393939 -138.02129079042783 z"/>
<path fill="#bababa" stroke="#bababa" d="M-5.999999999999984 -137.16541455160743 L-5.999999999999977 -69.33191201353637 L-6.439393939393929 -69.70256707759243 L-6.439393939393936 -137.5360696156635 z"/>
<path fill="#bababa" stroke="#bababa" d="M-5.999999999999999 -138.39194585448394 L-5.999999999999999 -70.55844331641286 L-5.326086956521738 -70.64137874570166 L-5.326086956521738 -138.47488128377273 z"/>
<path fill="#bababa" stroke="#bababa" d="M-4.7333333333333325 -137.32378535170415 L-4.7333333333333325 -69.49028281363307 L-5.326086956521738 -69.24897658424759 L-5.326086956521738 -137.08247912231866 z"/>
<path fill="#bababa" stroke="#bababa" d="M-5.326086956521738 -137.08247912231866 L-5.326086956521738 -69.24897658424761 L-5.999999999999999 -69.33191201353641 L-5.999999999999999 -137.16541455160745 z"/>
<path fill="#bababa" stroke="#bababa" d="M-4.7333333333333325 -138.23357505438722 L-4.5 -137.77868020304567 L-4.7333333333333325 -137.32378535170412 L-5.326086956521738 -137.08247912231863 L-6 -137.16541455160743 L-6.439393939393939 -137.5360696156635 L-6.439393939393939 -138.02129079042783 L-6 -138.3919458544839 L-5.326086956521738 -138.47488128377267 z"/>
<path fill="#bababa" stroke="#bababa" d="M-4.7333333333333325 -70.40007251631616 L-5.326086956521738 -70.64137874570164 L-6 -70.55844331641285 L-6.439393939393939 -70.18778825235677 L-6.439393939393939 -69.70256707759245 L-6 -69.33191201353637 L-5.326086956521738 -69.24897658424757 L-4.7333333333333325 -69.49028281363306 L-4.5 -69.94517766497461 z"/>
<path fill="#bababa" stroke="#bababa" d="M-4.733333333333321 -172.19905728788976 L-4.7333333333333165 -104.36555474981868 L-4.499999999999994 -103.91065989847715 L-4.499999999999998 -171.7441624365482 z"/>
<path fill="#bababa" stroke="#bababa" d="M-5.326086956521738 -172.44036351727524 L-5.326086956521738 -104.60686097920426 L-4.7333333333333325 -104.36555474981877 L-4.7333333333333325 -172.1990572878898 z"/>
<path fill="#bababa" stroke="#bababa" d="M-4.500000000000001 -171.7441624365482 L-4.500000000000005 -103.91065989847715 L-4.7333333333333485 -103.45576504713559 L-4.733333333333344 -171.28926758520663 z"/>
<path fill="#bababa" stroke="#bababa" d="M-6.439393939393972 -171.98677302393037 L-6.439393939393966 -104.15327048585931 L-6.000000000000014 -104.52392554991539 L-6.00000000000002 -172.35742808798642 z"/>
<path fill="#bababa" stroke="#bababa" d="M-6.439393939393939 -171.50155184916605 L-6.439393939393939 -103.66804931109499 L-6.439393939393939 -104.15327048585931 L-6.439393939393939 -171.98677302393037 z"/>
<path fill="#bababa" stroke="#bababa" d="M-5.999999999999976 -171.13089678510994 L-5.999999999999982 -103.2973942470389 L-6.439393939393914 -103.66804931109499 L-6.4393939393939075 -171.50155184916602 z"/>
<path fill="#bababa" stroke="#bababa" d="M-5.999999999999999 -172.35742808798645 L-5.999999999999999 -104.52392554991546 L-5.326086956521738 -104.60686097920426 L-5.326086956521738 -172.44036351727524 z"/>
<path fill="#bababa" stroke="#bababa" d="M-4.7333333333333325 -171.28926758520672 L-4.7333333333333325 -103.45576504713563 L-5.326086956521738 -103.21445881775016 L-5.326086956521738 -171.04796135582123 z"/>
<path fill="#bababa" stroke="#bababa" d="M-5.326086956521738 -171.04796135582117 L-5.326086956521738 -103.21445881775018 L-5.999999999999999 -103.29739424703897 L-5.999999999999999 -171.13089678510997 z"/>
<path fill="#bababa" stroke="#bababa" d="M-4.7333333333333325 -172.19905728788976 L-4.5 -171.7441624365482 L-4.7333333333333325 -171.28926758520666 L-5.326086956521738 -171.04796135582114 L-6 -171.13089678510997 L-6.439393939393939 -171.50155184916605 L-6.439393939393939 -171.98677302393037 L-6 -172.35742808798645 L-5.326086956521738 -172.44036351727522 z"/>
<path fill="#bababa" stroke="#bababa" d="M-4.7333333333333325 -104.3655547498187 L-5.326086956521738 -104.60686097920419 L-6 -104.52392554991539 L-6.439393939393939 -104.15327048585931 L-6.439393939393939 -103.66804931109498 L-6 -103.29739424703891 L-5.326086956521738 -103.21445881775011 L-4.7333333333333325 -103.45576504713559 L-4.5 -103.91065989847715 z"/>
<path fill="#e2c66c" stroke="#e2c66c" d="M-2.5 -205.70964467005075 L-2.5 -137.8761421319797 L-2.5 -133.63045685279187 L-2.5 -201.46395939086293 z"/>
<path fill="#e2c66c" stroke="#e2c66c" d="M-8.5 -205.70964467005078 L-8.5 -137.87614213197975 L-2.5 -137.87614213197975 L-2.5 -205.70964467005078 z"/>
<path fill="#e2c66c" stroke="#e2c66c" d="M-8.5 -201.46395939086293 L-8.5 -133.63045685279187 L-8.5 -137.8761421319797 L-8.5 -205.70964467005075 z"/>
<path fill="#e2c66c" stroke="#e2c66c" d="M-2.5 -201.46395939086295 L-2.5 -133.6304568527919 L-8.5 -133.6304568527919 L-8.5 -201.46395939086295 z"/>
<path fill="#e2c66c" stroke="#e2c66c" d="M-2.5 -205.70964467005072 L-2.5 -201.46395939086293 L-8.5 -201.46395939086293 L-8.5 -205.70964467005072 z"/>
<path fill="#e2c66c" stroke="#e2c66c" d="M-2.5 -137.87614213197966 L-8.5 -137.87614213197966 L-8.5 -133.63045685279187 L-2.5 -133.63045685279187 z"/>
<path fill="#c7df66" stroke="#c7df66" d="M-0.25 -171.79289340101522 L-0.25 -69.89644670050761 L-0.25 -78.0223350253807 L-0.25 -179.91878172588832 z"/>
<path fill="#c7df66" stroke="#c7df66" d="M-1.75 -171.7928934010152 L-1.75 -69.8964467005076 L-0.25 -69.8964467005076 L-0.25 -171.7928934010152 z"/>
<path fill="#c7df66" stroke="#c7df66" d="M-1.75 -179.91878172588832 L-1.75 -78.0223350253807 L-1.75 -69.89644670050761 L-1.75 -171.79289340101522 z"/>
<path fill="#c7df66" stroke="#c7df66" d="M-0.25 -179.9187817258883 L-0.25 -78.02233502538068 L-1.75 -78.02233502538068 L-1.75 -179.9187817258883 z"/>
<path fill="#c7df66" stroke="#c7df66" d="M-0.25 -171.79289340101528 L-0.25 -179.91878172588835 L-1.75 -179.91878172588835 L-1.75 -171.79289340101528 z"/>
<path fill="#c7df66" stroke="#c7df66" d="M-0.25 -69.89644670050761 L-1.75 -69.89644670050761 L-1.75 -78.02233502538073 L-0.25 -78.02233502538073 z"/>
<path fill="#c7df66" stroke="#c7df66" d="M-0.75 -188.751269035533 L-0.25 -188.751269035533 L-0.25 -196.8771573604061 L-1.75 -196.8771573604061 L-1.75 -188.751269035533 z"/>
<path fill="#c7df66" stroke="#c7df66" d="M-0.25 -162.91167512690353 L-0.25 -196.87715736040607 L-0.25 -188.75126903553297 L-0.25 -154.78578680203043 z"/>
<path fill="#c7df66" stroke="#c7df66" d="M-1.75 -154.78578680203043 L-0.25 -154.78578680203043 L-0.25 -188.75126903553297 L-1.75 -188.75126903553297 z"/>
<path fill="#c7df66" stroke="#c7df66" d="M-1.75 -162.91167512690353 L-1.75 -154.78578680203043 L-1.75 -188.75126903553297 L-1.75 -196.87715736040607 z"/>
<path fill="#c7df66" stroke="#c7df66" d="M-1.75 -196.87715736040607 L-0.25 -196.87715736040607 L-0.25 -162.91167512690353 L-1.75 -162.91167512690353 z"/>
<path fill="#c7df66" stroke="#c7df66" d="M-0.25 -154.78578680203046 L-1.75 -154.78578680203046 L-1.75 -162.91167512690356 L-0.25 -162.91167512690356 z"/>
<path fill="#c7df66" stroke="#c7df66" d="M-1.25 -180.2720812182741 L-0.25 -180.2720812182741 L-0.25 -188.3979695431472 L-1.75 -188.3979695431472 L-1.75 -180.2720812182741 z"/>
<path fill="#c7df66" stroke="#c7df66" d="M-0.25 -120.46700507614213 L-0.25 -188.39796954314718 L-0.25 -180.2720812182741 L-0.25 -112.34111675126903 z"/>
<path fill="#c7df66" stroke="#c7df66" d="M-1.75 -112.34111675126901 L-0.25 -112.34111675126901 L-0.25 -180.27208121827408 L-1.75 -180.27208121827408 z"/>
<path fill="#c7df66" stroke="#c7df66" d="M-1.75 -120.46700507614213 L-1.75 -112.34111675126903 L-1.75 -180.2720812182741 L-1.75 -188.39796954314718 z"/>
<path fill="#c7df66" stroke="#c7df66" d="M-1.75 -188.39796954314718 L-0.25 -188.39796954314718 L-0.25 -120.46700507614212 L-1.75 -120.46700507614212 z"/>
<path fill="#c7df66" stroke="#c7df66" d="M-0.25 -112.34111675126907 L-1.75 -112.34111675126907 L-1.75 -120.46700507614213 L-0.25 -120.46700507614213 z"/>
<path fill="#c7df66" stroke="#c7df66" d="M-0.25 -69.89644670050761 L-0.25 32 L-0.25 23.8741116751269 L-0.25 -78.0223350253807 z"/>
<path fill="#c7df66" stroke="#c7df66" d="M-1.75 -69.8964467005076 L-1.75 31.999999999999996 L-0.25 31.999999999999996 L-0.25 -69.8964467005076 z"/>
<path fill="#c7df66" stroke="#c7df66" d="M-1.75 -78.0223350253807 L-1.75 23.8741116751269 L-1.75 32 L-1.75 -69.89644670050761 z"/>
<path fill="#c7df66" stroke="#c7df66" d="M-0.25 -78.02233502538068 L-0.25 23.8741116751269 L-1.75 23.8741116751269 L-1.75 -78.02233502538068 z"/>
<path fill="#c7df66" stroke="#c7df66" d="M-0.25 -69.89644670050761 L-0.25 -78.02233502538073 L-1.75 -78.02233502538073 L-1.75 -69.89644670050761 z"/>
<path fill="#c7df66" stroke="#c7df66" d="M-0.25 31.99999999999998 L-1.75 31.99999999999998 L-1.75 23.87411167512689 L-0.25 23.87411167512689 z"/>
<path fill="#c7df66" stroke="#c7df66" d="M-0.25 -154.78578680203043 L-0.25 -52.88934010152284 L-0.25 -61.015228426395936 L-0.25 -162.91167512690353 z"/>
<path fill="#c7df66" stroke="#c7df66" d="M-1.75 -154.78578680203043 L-1.75 -52.88934010152284 L-0.25 -52.88934010152284 L-0.25 -154.78578680203043 z"/>
<path fill="#c7df66" stroke="#c7df66" d="M-1.75 -162.91167512690353 L-1.75 -61.015228426395936 L-1.75 -52.88934010152284 L-1.75 -154.78578680203043 z"/>
<path fill="#c7df66" stroke="#c7df66" d="M-0.25 -162.91167512690353 L-0.25 -61.01522842639593 L-1.75 -61.01522842639593 L-1.75 -162.91167512690353 z"/>
<path fill="#c7df66" stroke="#c7df66" d="M-0.25 -154.78578680203046 L-0.25 -162.91167512690356 L-1.75 -162.91167512690356 L-1.75 -154.78578680203046 z"/>
<path fill="#c7df66" stroke="#c7df66" d="M-0.25 -52.88934010152285 L-1.75 -52.88934010152285 L-1.75 -61.01522842639596 L-0.25 -61.01522842639596 z"/>
<path fill="#c7df66" stroke="#c7df66" d="M-0.25 -112.34111675126903 L-0.25 -10.44467005076142 L-0.25 -18.570558375634516 L-0.25 -120.46700507614213 z"/>
<path fill="#c7df66" stroke="#c7df66" d="M-1.75 -112.34111675126903 L-1.75 -10.44467005076142 L-0.25 -10.44467005076142 L-0.25 -112.34111675126903 z"/>
<path fill="#c7df66" stroke="#c7df66" d="M-1.75 -120.46700507614213 L-1.75 -18.570558375634516 L-1.75 -10.44467005076142 L-1.75 -112.34111675126903 z"/>
<path fill="#c7df66" stroke="#c7df66" d="M-0.25 -120.46700507614212 L-0.25 -18.570558375634516 L-1.75 -18.570558375634516 L-1.75 -120.46700507614212 z"/>
<path fill="#c7df66" stroke="#c7df66" d="M-0.25 -112.34111675126907 L-0.25 -120.46700507614213 L-1.75 -120.46700507614213 L-1.75 -112.34111675126907 z"/>
<path fill="#c7df66" stroke="#c7df66" d="M-0.25 -10.444670050761445 L-1.75 -10.444670050761445 L-1.75 -18.570558375634555 L-0.25 -18.570558375634555 z"/>
<path fill="#c7df66" stroke="#c7df66" d="M-0.25 -197.23045685279186 L-0.25 -95.33401015228425 L-0.25 -103.45989847715735 L-0.25 -205.35634517766496 z"/>
<path fill="#c7df66" stroke="#c7df66" d="M-1.75 -197.23045685279186 L-1.75 -95.33401015228425 L-0.25 -95.33401015228425 L-0.25 -197.23045685279186 z"/>
<path fill="#c7df66" stroke="#c7df66" d="M-1.75 -205.35634517766496 L-1.75 -103.45989847715735 L-1.75 -95.33401015228425 L-1.75 -197.23045685279186 z"/>
<path fill="#c7df66" stroke="#c7df66" d="M-0.25 -205.35634517766496 L-0.25 -103.45989847715735 L-1.75 -103.45989847715735 L-1.75 -205.35634517766496 z"/>
<path fill="#c7df66" stroke="#c7df66" d="M-0.25 -197.23045685279186 L-0.25 -205.356345177665 L-1.75 -205.356345177665 L-1.75 -197.23045685279186 z"/>
<path fill="#c7df66" stroke="#c7df66" d="M-0.25 -95.33401015228429 L-1.75 -95.33401015228429 L-1.75 -103.45989847715737 L-0.25 -103.45989847715737 z"/>
</svg>