<?xml version="1.0" encoding="UTF-8"?>
<!-- Generated by jsxcad -->
<!DOCTYPE svg PUBLIC "-//W3C//DTD SVG 1.1 Tiny//EN" "http://www.w3.org/Graphics/SVG/1.1/DTD/svg11-tiny.dtd">
<svg baseProfile="tiny" height="271.6263959390865mm" width="14.50000000000001mm" viewBox="-8.500000000000007 -65.91675126903557 14.50000000000001 271.6263959390865" version="1.1" stroke="black" stroke-width=".1" fill="none" xmlns="http://www.w3.org/2000/svg">
<path fill="#000000" stroke="#000000" d="M-1.75 -52.88934010152282 L-1.75 -61.015228426395915 L-1.75 6.915736040609158 L-1.75 12.332994923857889 L-1.75 15.041624365482255 z"/>
<path fill="#000000" stroke="#000000" d="M-0.25 -61.015228426395915 L-0.25 6.915736040609158 L-1.25 6.915736040609158 L-1.75 6.915736040609158 L-1.75 -61.015228426395915 z"/>
<path fill="#000000" stroke="#000000" d="M-0.25 -52.88934010152282 L-0.25 15.041624365482255 L-0.25 9.624365482233523 L-0.25 6.915736040609158 L-0.25 -61.015228426395915 z"/>
<path fill="#000000" stroke="#000000" d="M-0.25 15.041624365482251 L-0.25 -52.88934010152282 L-1.75 -52.88934010152282 L-1.75 15.041624365482251 L-0.75 15.041624365482251 z"/>
<path fill="#000000" stroke="#000000" d="M-1.75 -61.01522842639592 L-1.75 -52.889340101522855 L-0.25 -52.889340101522855 L-0.25 -61.01522842639592 z"/>
<path fill="#000000" stroke="#000000" d="M-1.75 15.041624365482226 L-1.75 12.33299492385788 L-1.75 6.91573604060915 L-1.25 6.91573604060915 L-0.25 6.91573604060915 L-0.25 9.624365482233515 L-0.25 15.041624365482226 L-0.75 15.041624365482226 z"/>
<path fill="#000000" stroke="#000000" d="M-1.75 -10.444670050761399 L-1.75 -18.570558375634494 L-1.75 15.39492385786804 L-1.75 18.103553299492404 L-1.75 23.520812182741135 z"/>
<path fill="#000000" stroke="#000000" d="M-0.25 -18.570558375634494 L-0.25 15.39492385786804 L-0.75 15.39492385786804 L-1.75 15.39492385786804 L-1.75 -18.570558375634494 z"/>
<path fill="#000000" stroke="#000000" d="M-0.25 -10.444670050761399 L-0.25 23.520812182741135 L-0.25 20.81218274111677 L-0.25 15.39492385786804 L-0.25 -18.570558375634494 z"/>
<path fill="#000000" stroke="#000000" d="M-0.25 23.520812182741135 L-0.25 -10.444670050761397 L-1.75 -10.444670050761397 L-1.75 23.520812182741135 L-1.25 23.520812182741135 z"/>
<path fill="#000000" stroke="#000000" d="M-1.75 -18.570558375634516 L-1.75 -10.444670050761408 L-0.25 -10.444670050761408 L-0.25 -18.570558375634516 z"/>
<path fill="#000000" stroke="#000000" d="M-0.25 23.52081218274113 L-1.25 23.52081218274113 L-1.75 23.52081218274113 L-1.75 18.103553299492397 L-1.75 15.394923857868031 L-0.75 15.394923857868031 L-0.25 15.394923857868031 L-0.25 20.81218274111676 z"/>
<path fill="#000000" stroke="#000000" d="M-1.75 -1.5634517766497247 L-1.75 6.5624365482233715 L-1.75 -95.33401015228424 L-1.75 -103.45989847715734 z"/>
<path fill="#000000" stroke="#000000" d="M-0.25 -1.5634517766497245 L-1.75 -1.5634517766497245 L-1.75 -103.45989847715732 L-0.25 -103.45989847715732 z"/>
<path fill="#000000" stroke="#000000" d="M-0.25 6.5624365482233715 L-0.25 -1.5634517766497247 L-0.25 -103.45989847715734 L-0.25 -95.33401015228424 z"/>
<path fill="#000000" stroke="#000000" d="M-1.75 6.562436548223371 L-0.25 6.562436548223371 L-0.25 -95.33401015228422 L-1.75 -95.33401015228422 z"/>
<path fill="#000000" stroke="#000000" d="M-1.75 -103.45989847715737 L-1.75 -95.33401015228425 L-0.25 -95.33401015228425 L-0.25 -103.45989847715737 z"/>
<path fill="#000000" stroke="#000000" d="M-1.75 6.562436548223364 L-1.75 -1.5634517766497462 L-0.25 -1.5634517766497462 L-0.25 6.562436548223364 z"/>
<path fill="#e2c66c" stroke="#e2c66c" d="M0 -1.9167512690355115 L0 65.91675126903554 L0 61.67106598984773 L0 -6.1624365482233285 z"/>
<path fill="#e2c66c" stroke="#e2c66c" d="M6 -1.9167512690355262 L6 65.91675126903554 L0 65.91675126903554 L0 -1.9167512690355262 z"/>
<path fill="#e2c66c" stroke="#e2c66c" d="M6 -6.1624365482233285 L6 61.67106598984773 L6 65.91675126903554 L6 -1.9167512690355115 z"/>
<path fill="#e2c66c" stroke="#e2c66c" d="M0 -6.16243654822333 L0 61.67106598984772 L6 61.67106598984772 L6 -6.16243654822333 z"/>
<path fill="#e2c66c" stroke="#e2c66c" d="M0 -1.9167512690355113 L0 -6.1624365482233285 L6 -6.1624365482233285 L6 -1.9167512690355113 z"/>
<path fill="#e2c66c" stroke="#e2c66c" d="M0 65.91675126903553 L6 65.91675126903553 L6 61.671065989847726 L0 61.671065989847726 z"/>
<path fill="#e2c66c" stroke="#e2c66c" d="M-8.5 -33.75939086294414 L-8.5 34.07411167512692 L-8.5 29.828426395939108 L-8.5 -38.005076142131955 z"/>
<path fill="#e2c66c" stroke="#e2c66c" d="M-2.5 -33.75939086294416 L-2.5 34.07411167512691 L-8.5 34.07411167512691 L-8.5 -33.75939086294416 z"/>
<path fill="#e2c66c" stroke="#e2c66c" d="M-2.5 -38.005076142131955 L-2.5 29.828426395939108 L-2.5 34.07411167512692 L-2.5 -33.75939086294414 z"/>
<path fill="#e2c66c" stroke="#e2c66c" d="M-8.5 -38.00507614213196 L-8.5 29.828426395939086 L-2.5 29.828426395939086 L-2.5 -38.00507614213196 z"/>
<path fill="#e2c66c" stroke="#e2c66c" d="M-8.5 -33.75939086294414 L-8.5 -38.00507614213195 L-2.5 -38.00507614213195 L-2.5 -33.75939086294414 z"/>
<path fill="#e2c66c" stroke="#e2c66c" d="M-8.5 34.074111675126915 L-2.5 34.074111675126915 L-2.5 29.828426395939104 L-8.5 29.828426395939104 z"/>
<path fill="#e2c66c" stroke="#e2c66c" d="M-8.5 -67.72487309644667 L-8.5 0.10862944162438679 L-8.5 -4.13705583756343 L-8.5 -71.9705583756345 z"/>
<path fill="#e2c66c" stroke="#e2c66c" d="M-2.5 -67.7248730964467 L-2.5 0.10862944162434501 L-8.5 0.10862944162434501 L-8.5 -67.7248730964467 z"/>
<path fill="#e2c66c" stroke="#e2c66c" d="M-2.5 -71.9705583756345 L-2.5 -4.13705583756343 L-2.5 0.10862944162438679 L-2.5 -67.72487309644667 z"/>
<path fill="#e2c66c" stroke="#e2c66c" d="M-8.5 -71.97055837563452 L-8.5 -4.1370558375634365 L-2.5 -4.1370558375634365 L-2.5 -71.97055837563452 z"/>
<path fill="#e2c66c" stroke="#e2c66c" d="M-8.5 -67.72487309644667 L-8.5 -71.97055837563448 L-2.5 -71.97055837563448 L-2.5 -67.72487309644667 z"/>
<path fill="#e2c66c" stroke="#e2c66c" d="M-8.5 0.10862944162438679 L-2.5 0.10862944162438679 L-2.5 -4.137055837563429 L-8.5 -4.137055837563429 z"/>
<path fill="#e2c66c" stroke="#e2c66c" d="M-8.5 -101.69035532994921 L-8.5 -33.85685279187815 L-8.5 -38.102538071065965 L-8.5 -105.93604060913702 z"/>
<path fill="#e2c66c" stroke="#e2c66c" d="M-2.5 -101.69035532994923 L-2.5 -33.856852791878175 L-8.5 -33.856852791878175 L-8.5 -101.69035532994923 z"/>
<path fill="#e2c66c" stroke="#e2c66c" d="M-2.5 -105.93604060913702 L-2.5 -38.102538071065965 L-2.5 -33.85685279187815 L-2.5 -101.69035532994921 z"/>
<path fill="#e2c66c" stroke="#e2c66c" d="M-8.5 -105.93604060913705 L-8.5 -38.102538071066 L-2.5 -38.102538071066 L-2.5 -105.93604060913705 z"/>
<path fill="#e2c66c" stroke="#e2c66c" d="M-8.5 -101.6903553299492 L-8.5 -105.93604060913702 L-2.5 -105.93604060913702 L-2.5 -101.6903553299492 z"/>
<path fill="#e2c66c" stroke="#e2c66c" d="M-8.5 -33.85685279187814 L-2.5 -33.85685279187814 L-2.5 -38.102538071065965 L-8.5 -38.102538071065965 z"/>
<path fill="#e2c66c" stroke="#e2c66c" d="M-8.5 -135.65583756345174 L-8.5 -67.82233502538068 L-8.5 -72.0680203045685 L-8.5 -139.90152284263957 z"/>
<path fill="#e2c66c" stroke="#e2c66c" d="M-2.5 -135.6558375634518 L-2.5 -67.8223350253807 L-8.5 -67.8223350253807 L-8.5 -135.6558375634518 z"/>
<path fill="#e2c66c" stroke="#e2c66c" d="M-2.5 -139.90152284263957 L-2.5 -72.0680203045685 L-2.5 -67.82233502538068 L-2.5 -135.65583756345174 z"/>
<path fill="#e2c66c" stroke="#e2c66c" d="M-8.5 -139.90152284263957 L-8.5 -72.06802030456852 L-2.5 -72.06802030456852 L-2.5 -139.90152284263957 z"/>
<path fill="#e2c66c" stroke="#e2c66c" d="M-8.5 -135.6558375634517 L-8.5 -139.90152284263954 L-2.5 -139.90152284263954 L-2.5 -135.6558375634517 z"/>
<path fill="#e2c66c" stroke="#e2c66c" d="M-8.5 -67.82233502538068 L-2.5 -67.82233502538068 L-2.5 -72.06802030456849 L-8.5 -72.06802030456849 z"/>
<path fill="#e2c66c" stroke="#e2c66c" d="M-8.5 -169.62131979695428 L-8.5 -101.78781725888322 L-8.5 -106.03350253807103 L-8.5 -173.8670050761421 z"/>
<path fill="#e2c66c" stroke="#e2c66c" d="M-2.5 -169.6213197969543 L-2.5 -101.78781725888327 L-8.5 -101.78781725888327 L-8.5 -169.6213197969543 z"/>
<path fill="#e2c66c" stroke="#e2c66c" d="M-2.5 -173.8670050761421 L-2.5 -106.03350253807103 L-2.5 -101.78781725888322 L-2.5 -169.62131979695428 z"/>
<path fill="#e2c66c" stroke="#e2c66c" d="M-8.5 -173.86700507614214 L-8.5 -106.03350253807105 L-2.5 -106.03350253807105 L-2.5 -173.86700507614214 z"/>
<path fill="#e2c66c" stroke="#e2c66c" d="M-8.5 -169.62131979695428 L-8.5 -173.86700507614208 L-2.5 -173.86700507614208 L-2.5 -169.62131979695428 z"/>
<path fill="#e2c66c" stroke="#e2c66c" d="M-8.5 -101.78781725888321 L-2.5 -101.78781725888321 L-2.5 -106.03350253807103 L-8.5 -106.03350253807103 z"/>
<path fill="#e2c66c" stroke="#e2c66c" d="M-8.5 -205.70964467005072 L-8.5 -201.4639593908629 L-8.5 -133.63045685279184 L-8.5 -137.87614213197966 L-8.5 -171.7928934010152 z"/>
<path fill="#e2c66c" stroke="#e2c66c" d="M-2.5 -133.6304568527919 L-8.5 -133.6304568527919 L-8.5 -201.46395939086295 L-2.5 -201.46395939086295 z"/>
<path fill="#e2c66c" stroke="#e2c66c" d="M-2.5 -137.87614213197966 L-2.5 -133.63045685279184 L-2.5 -201.4639593908629 L-2.5 -205.70964467005072 L-2.5 -171.7928934010152 z"/>
<path fill="#e2c66c" stroke="#e2c66c" d="M-8.5 -205.70964467005078 L-8.5 -171.79289340101522 L-8.5 -137.87614213197966 L-2.5 -137.87614213197966 L-2.5 -171.79289340101522 L-2.5 -205.70964467005078 z"/>
<path fill="#e2c66c" stroke="#e2c66c" d="M-8.5 -201.4639593908629 L-8.5 -205.70964467005072 L-2.5 -205.70964467005072 L-2.5 -201.4639593908629 z"/>
<path fill="#e2c66c" stroke="#e2c66c" d="M-8.5 -137.87614213197966 L-8.5 -133.63045685279184 L-2.5 -133.63045685279184 L-2.5 -137.87614213197966 z"/>
<path fill="#c7df66" stroke="#c7df66" d="M-1.75 -179.91878172588832 L-1.75 -171.7928934010152 L-0.25 -171.7928934010152 L-0.25 -179.91878172588832 z"/>
<path fill="#c7df66" stroke="#c7df66" d="M-1.75 -78.02233502538068 L-1.75 -69.89644670050758 L-1.75 -171.7928934010152 L-1.75 -179.9187817258883 z"/>
<path fill="#c7df66" stroke="#c7df66" d="M-0.25 -78.02233502538067 L-1.75 -78.02233502538067 L-1.75 -179.9187817258883 L-0.25 -179.9187817258883 z"/>
<path fill="#c7df66" stroke="#c7df66" d="M-0.25 -69.89644670050758 L-0.25 -78.02233502538068 L-0.25 -179.9187817258883 L-0.25 -171.7928934010152 z"/>
<path fill="#c7df66" stroke="#c7df66" d="M-1.75 -69.89644670050758 L-0.25 -69.89644670050758 L-0.25 -171.79289340101516 L-1.75 -171.79289340101516 z"/>
<path fill="#c7df66" stroke="#c7df66" d="M-1.75 -69.89644670050762 L-1.75 -78.02233502538068 L-0.25 -78.02233502538068 L-0.25 -69.89644670050762 z"/>
<path fill="#c7df66" stroke="#c7df66" d="M-1.75 -188.75126903553297 L-0.75 -188.75126903553297 L-0.25 -188.75126903553297 L-0.25 -194.1685279187817 L-0.25 -196.87715736040607 L-1.25 -196.87715736040607 L-1.75 -196.87715736040607 L-1.75 -191.45989847715737 z"/>
<path fill="#c7df66" stroke="#c7df66" d="M-1.75 -154.78578680203043 L-1.75 -188.75126903553297 L-1.75 -191.45989847715734 L-1.75 -196.87715736040604 L-1.75 -162.91167512690353 z"/>
<path fill="#c7df66" stroke="#c7df66" d="M-0.25 -162.9116751269035 L-1.75 -162.9116751269035 L-1.75 -196.87715736040604 L-1.25 -196.87715736040604 L-0.25 -196.87715736040604 z"/>
<path fill="#c7df66" stroke="#c7df66" d="M-0.25 -154.78578680203043 L-0.25 -162.91167512690353 L-0.25 -196.87715736040604 L-0.25 -194.16852791878168 L-0.25 -188.75126903553297 z"/>
<path fill="#c7df66" stroke="#c7df66" d="M-0.25 -188.75126903553297 L-0.75 -188.75126903553297 L-1.75 -188.75126903553297 L-1.75 -154.7857868020304 L-0.25 -154.7857868020304 z"/>
<path fill="#c7df66" stroke="#c7df66" d="M-1.75 -154.78578680203043 L-1.75 -162.91167512690353 L-0.25 -162.91167512690353 L-0.25 -154.78578680203043 z"/>
<path fill="#c7df66" stroke="#c7df66" d="M-0.25 -180.2720812182741 L-0.25 -182.98071065989848 L-0.25 -188.3979695431472 L-0.75 -188.3979695431472 L-1.75 -188.3979695431472 L-1.75 -185.68934010152284 L-1.75 -180.2720812182741 L-1.25 -180.2720812182741 z"/>
<path fill="#c7df66" stroke="#c7df66" d="M-1.75 -112.34111675126901 L-1.75 -180.27208121827408 L-1.75 -185.68934010152282 L-1.75 -188.39796954314718 L-1.75 -120.4670050761421 z"/>
<path fill="#c7df66" stroke="#c7df66" d="M-0.25 -120.4670050761421 L-1.75 -120.4670050761421 L-1.75 -188.39796954314716 L-0.75 -188.39796954314716 L-0.25 -188.39796954314716 z"/>
<path fill="#c7df66" stroke="#c7df66" d="M-0.25 -112.34111675126901 L-0.25 -120.4670050761421 L-0.25 -188.39796954314718 L-0.25 -182.98071065989845 L-0.25 -180.27208121827408 z"/>
<path fill="#c7df66" stroke="#c7df66" d="M-0.25 -180.27208121827408 L-1.25 -180.27208121827408 L-1.75 -180.27208121827408 L-1.75 -112.341116751269 L-0.25 -112.341116751269 z"/>
<path fill="#c7df66" stroke="#c7df66" d="M-1.75 -112.34111675126903 L-1.75 -120.46700507614214 L-0.25 -120.46700507614214 L-0.25 -112.34111675126903 z"/>
<path fill="#c7df66" stroke="#c7df66" d="M-1.75 -78.02233502538068 L-1.75 23.874111675126922 L-1.75 32.00000000000002 L-1.75 -69.89644670050758 z"/>
<path fill="#c7df66" stroke="#c7df66" d="M-0.25 -78.02233502538067 L-0.25 23.874111675126922 L-1.75 23.874111675126922 L-1.75 -78.02233502538067 z"/>
<path fill="#c7df66" stroke="#c7df66" d="M-0.25 -69.89644670050758 L-0.25 32.00000000000002 L-0.25 23.874111675126922 L-0.25 -78.02233502538068 z"/>
<path fill="#c7df66" stroke="#c7df66" d="M-1.75 -69.89644670050758 L-1.75 32.000000000000014 L-0.25 32.000000000000014 L-0.25 -69.89644670050758 z"/>
<path fill="#c7df66" stroke="#c7df66" d="M-1.75 -78.02233502538068 L-1.75 -69.89644670050762 L-0.25 -69.89644670050762 L-0.25 -78.02233502538068 z"/>
<path fill="#c7df66" stroke="#c7df66" d="M-1.75 23.874111675126905 L-0.25 23.874111675126905 L-0.25 32.000000000000014 L-1.75 32.000000000000014 z"/>
<path fill="#c7df66" stroke="#c7df66" d="M-1.75 -162.91167512690353 L-1.75 -61.015228426395915 L-1.75 -52.88934010152282 L-1.75 -154.78578680203043 z"/>
<path fill="#c7df66" stroke="#c7df66" d="M-0.25 -162.91167512690348 L-0.25 -61.015228426395915 L-1.75 -61.015228426395915 L-1.75 -162.91167512690348 z"/>
<path fill="#c7df66" stroke="#c7df66" d="M-0.25 -154.78578680203043 L-0.25 -52.88934010152282 L-0.25 -61.015228426395915 L-0.25 -162.91167512690353 z"/>
<path fill="#c7df66" stroke="#c7df66" d="M-1.75 -154.7857868020304 L-1.75 -52.88934010152281 L-0.25 -52.88934010152281 L-0.25 -154.7857868020304 z"/>
<path fill="#c7df66" stroke="#c7df66" d="M-1.75 -162.91167512690353 L-1.75 -154.78578680203043 L-0.25 -154.78578680203043 L-0.25 -162.91167512690353 z"/>
<path fill="#c7df66" stroke="#c7df66" d="M-1.75 -61.01522842639592 L-0.25 -61.01522842639592 L-0.25 -52.889340101522855 L-1.75 -52.889340101522855 z"/>
<path fill="#c7df66" stroke="#c7df66" d="M-1.75 -120.4670050761421 L-1.75 -18.570558375634494 L-1.75 -10.444670050761399 L-1.75 -112.34111675126901 z"/>
<path fill="#c7df66" stroke="#c7df66" d="M-0.25 -120.4670050761421 L-0.25 -18.570558375634494 L-1.75 -18.570558375634494 L-1.75 -120.4670050761421 z"/>
<path fill="#c7df66" stroke="#c7df66" d="M-0.25 -112.34111675126901 L-0.25 -10.444670050761399 L-0.25 -18.570558375634494 L-0.25 -120.4670050761421 z"/>
<path fill="#c7df66" stroke="#c7df66" d="M-1.75 -112.341116751269 L-1.75 -10.444670050761399 L-0.25 -10.444670050761399 L-0.25 -112.341116751269 z"/>
<path fill="#c7df66" stroke="#c7df66" d="M-1.75 -120.46700507614214 L-1.75 -112.34111675126903 L-0.25 -112.34111675126903 L-0.25 -120.46700507614214 z"/>
<path fill="#c7df66" stroke="#c7df66" d="M-1.75 -18.570558375634516 L-0.25 -18.570558375634516 L-0.25 -10.444670050761408 L-1.75 -10.444670050761408 z"/>
<path fill="#c7df66" stroke="#c7df66" d="M-1.75 -205.35634517766493 L-1.75 -197.23045685279186 L-0.25 -197.23045685279186 L-0.25 -205.35634517766493 z"/>
<path fill="#c7df66" stroke="#c7df66" d="M-1.75 -103.45989847715734 L-1.75 -95.33401015228424 L-1.75 -197.23045685279183 L-1.75 -205.35634517766493 z"/>
<path fill="#c7df66" stroke="#c7df66" d="M-0.25 -103.45989847715732 L-1.75 -103.45989847715732 L-1.75 -205.3563451776649 L-0.25 -205.3563451776649 z"/>
<path fill="#c7df66" stroke="#c7df66" d="M-0.25 -95.33401015228424 L-0.25 -103.45989847715734 L-0.25 -205.35634517766493 L-0.25 -197.23045685279183 z"/>
<path fill="#c7df66" stroke="#c7df66" d="M-1.75 -95.33401015228422 L-0.25 -95.33401015228422 L-0.25 -197.23045685279183 L-1.75 -197.23045685279183 z"/>
<path fill="#c7df66" stroke="#c7df66" d="M-1.75 -95.33401015228425 L-1.75 -103.45989847715737 L-0.25 -103.45989847715737 L-0.25 -95.33401015228425 z"/>
</svg>