<?xml version="1.0" encoding="UTF-8"?>
<!-- Generated by jsxcad -->
<!DOCTYPE svg PUBLIC "-//W3C//DTD SVG 1.1 Tiny//EN" "http://www.w3.org/Graphics/SVG/1.1/DTD/svg11-tiny.dtd">
<svg baseProfile="tiny" height="373.16954314720823mm" width="14.500000000000007mm" viewBox="-8.500000000000004 -65.91675126903557 14.500000000000007 373.16954314720823" version="1.1" stroke="black" stroke-width=".1" fill="none" xmlns="http://www.w3.org/2000/svg">
<path fill="#75dbf2" stroke="#75dbf2" d="M0 -1.9167512690355186 L0 65.91675126903554 L0 61.671065989847726 L0 -6.162436548223336 z"/>
<path fill="#75dbf2" stroke="#75dbf2" d="M6 -1.9167512690355275 L6 65.91675126903552 L0 65.91675126903552 L0 -1.9167512690355275 z"/>
<path fill="#75dbf2" stroke="#75dbf2" d="M6 -6.162436548223336 L6 61.671065989847726 L6 65.91675126903554 L6 -1.9167512690355186 z"/>
<path fill="#75dbf2" stroke="#75dbf2" d="M0 -6.162436548223354 L0 61.67106598984769 L6 61.67106598984769 L6 -6.162436548223354 z"/>
<path fill="#75dbf2" stroke="#75dbf2" d="M0 -1.9167512690355184 L0 -6.162436548223336 L6 -6.162436548223336 L6 -1.9167512690355184 z"/>
<path fill="#75dbf2" stroke="#75dbf2" d="M0 65.91675126903553 L6 65.91675126903553 L6 61.67106598984771 L0 61.67106598984771 z"/>
<path fill="#75dbf2" stroke="#75dbf2" d="M-8.5 -33.759390862944144 L-8.5 34.074111675126915 L-8.5 29.8284263959391 L-8.5 -38.00507614213196 z"/>
<path fill="#75dbf2" stroke="#75dbf2" d="M-2.5 -33.75939086294416 L-2.5 34.074111675126886 L-8.5 34.074111675126886 L-8.5 -33.75939086294416 z"/>
<path fill="#75dbf2" stroke="#75dbf2" d="M-2.5 -38.00507614213196 L-2.5 29.8284263959391 L-2.5 34.074111675126915 L-2.5 -33.759390862944144 z"/>
<path fill="#75dbf2" stroke="#75dbf2" d="M-8.5 -38.00507614213198 L-8.5 29.82842639593906 L-2.5 29.82842639593906 L-2.5 -38.00507614213198 z"/>
<path fill="#75dbf2" stroke="#75dbf2" d="M-8.5 -33.759390862944144 L-8.5 -38.00507614213196 L-2.5 -38.00507614213196 L-2.5 -33.759390862944144 z"/>
<path fill="#75dbf2" stroke="#75dbf2" d="M-8.5 34.07411167512691 L-2.5 34.07411167512691 L-2.5 29.828426395939093 L-8.5 29.828426395939093 z"/>
<path fill="#75dbf2" stroke="#75dbf2" d="M-8.5 -67.72487309644669 L-8.5 0.10862944162437968 L-8.5 -4.137055837563437 L-8.5 -71.9705583756345 z"/>
<path fill="#75dbf2" stroke="#75dbf2" d="M-2.5 -67.72487309644673 L-2.5 0.10862944162436629 L-8.5 0.10862944162436629 L-8.5 -67.72487309644673 z"/>
<path fill="#75dbf2" stroke="#75dbf2" d="M-2.5 -71.9705583756345 L-2.5 -4.137055837563437 L-2.5 0.10862944162437968 L-2.5 -67.72487309644669 z"/>
<path fill="#75dbf2" stroke="#75dbf2" d="M-8.5 -71.97055837563451 L-8.5 -4.13705583756346 L-2.5 -4.13705583756346 L-2.5 -71.97055837563451 z"/>
<path fill="#75dbf2" stroke="#75dbf2" d="M-8.5 -67.72487309644667 L-8.5 -71.9705583756345 L-2.5 -71.9705583756345 L-2.5 -67.72487309644667 z"/>
<path fill="#75dbf2" stroke="#75dbf2" d="M-8.5 0.10862944162437967 L-2.5 0.10862944162437967 L-2.5 -4.1370558375634365 L-8.5 -4.1370558375634365 z"/>
<path fill="#75dbf2" stroke="#75dbf2" d="M-8.5 -101.69035532994921 L-8.5 -33.856852791878154 L-8.5 -38.10253807106597 L-8.5 -105.93604060913704 z"/>
<path fill="#75dbf2" stroke="#75dbf2" d="M-2.5 -101.69035532994924 L-2.5 -33.8568527918782 L-8.5 -33.8568527918782 L-8.5 -101.69035532994924 z"/>
<path fill="#75dbf2" stroke="#75dbf2" d="M-2.5 -105.93604060913704 L-2.5 -38.10253807106597 L-2.5 -33.856852791878154 L-2.5 -101.69035532994921 z"/>
<path fill="#75dbf2" stroke="#75dbf2" d="M-8.5 -105.93604060913708 L-8.5 -38.10253807106598 L-2.5 -38.10253807106598 L-2.5 -105.93604060913708 z"/>
<path fill="#75dbf2" stroke="#75dbf2" d="M-8.5 -101.69035532994921 L-8.5 -105.93604060913702 L-2.5 -105.93604060913702 L-2.5 -101.69035532994921 z"/>
<path fill="#75dbf2" stroke="#75dbf2" d="M-8.5 -33.856852791878154 L-2.5 -33.856852791878154 L-2.5 -38.102538071065965 L-8.5 -38.102538071065965 z"/>
<path fill="#75dbf2" stroke="#75dbf2" d="M-8.5 -135.65583756345174 L-8.5 -67.8223350253807 L-8.5 -72.0680203045685 L-8.5 -139.90152284263957 z"/>
<path fill="#75dbf2" stroke="#75dbf2" d="M-2.5 -135.65583756345177 L-2.5 -67.82233502538072 L-8.5 -67.82233502538072 L-8.5 -135.65583756345177 z"/>
<path fill="#75dbf2" stroke="#75dbf2" d="M-2.5 -139.90152284263957 L-2.5 -72.0680203045685 L-2.5 -67.8223350253807 L-2.5 -135.65583756345174 z"/>
<path fill="#75dbf2" stroke="#75dbf2" d="M-8.5 -139.9015228426396 L-8.5 -72.06802030456855 L-2.5 -72.06802030456855 L-2.5 -139.9015228426396 z"/>
<path fill="#75dbf2" stroke="#75dbf2" d="M-8.5 -135.65583756345174 L-8.5 -139.90152284263954 L-2.5 -139.90152284263954 L-2.5 -135.65583756345174 z"/>
<path fill="#75dbf2" stroke="#75dbf2" d="M-8.5 -67.82233502538068 L-2.5 -67.82233502538068 L-2.5 -72.0680203045685 L-8.5 -72.0680203045685 z"/>
<path fill="#75dbf2" stroke="#75dbf2" d="M-8.5 -169.62131979695428 L-8.5 -101.78781725888322 L-8.5 -106.03350253807105 L-8.5 -173.8670050761421 z"/>
<path fill="#75dbf2" stroke="#75dbf2" d="M-2.5 -169.62131979695428 L-2.5 -101.78781725888324 L-8.5 -101.78781725888324 L-8.5 -169.62131979695428 z"/>
<path fill="#75dbf2" stroke="#75dbf2" d="M-2.5 -173.8670050761421 L-2.5 -106.03350253807105 L-2.5 -101.78781725888322 L-2.5 -169.62131979695428 z"/>
<path fill="#75dbf2" stroke="#75dbf2" d="M-8.5 -173.8670050761421 L-8.5 -106.03350253807108 L-2.5 -106.03350253807108 L-2.5 -173.8670050761421 z"/>
<path fill="#75dbf2" stroke="#75dbf2" d="M-8.5 -169.62131979695428 L-8.5 -173.8670050761421 L-2.5 -173.8670050761421 L-2.5 -169.62131979695428 z"/>
<path fill="#75dbf2" stroke="#75dbf2" d="M-8.5 -101.78781725888322 L-2.5 -101.78781725888322 L-2.5 -106.03350253807103 L-8.5 -106.03350253807103 z"/>
<path fill="#75dbf2" stroke="#75dbf2" d="M-8.5 -201.46395939086293 L-8.5 -133.63045685279184 L-8.5 -137.87614213197966 L-8.5 -205.70964467005072 z"/>
<path fill="#75dbf2" stroke="#75dbf2" d="M-2.5 -201.46395939086293 L-2.5 -133.63045685279187 L-8.5 -133.63045685279187 L-8.5 -201.46395939086293 z"/>
<path fill="#75dbf2" stroke="#75dbf2" d="M-2.5 -205.70964467005072 L-2.5 -137.87614213197966 L-2.5 -133.63045685279184 L-2.5 -201.46395939086293 z"/>
<path fill="#75dbf2" stroke="#75dbf2" d="M-8.5 -205.70964467005075 L-8.5 -137.87614213197975 L-2.5 -137.87614213197975 L-2.5 -205.70964467005075 z"/>
<path fill="#75dbf2" stroke="#75dbf2" d="M-8.5 -201.4639593908629 L-8.5 -205.70964467005072 L-2.5 -205.70964467005072 L-2.5 -201.4639593908629 z"/>
<path fill="#75dbf2" stroke="#75dbf2" d="M-8.5 -133.63045685279184 L-2.5 -133.63045685279184 L-2.5 -137.87614213197966 L-8.5 -137.87614213197966 z"/>
<path fill="#c7df66" stroke="#c7df66" d="M-1.75 -179.9187817258883 L-1.75 -78.02233502538068 L-1.75 -69.8964467005076 L-1.75 -171.7928934010152 z"/>
<path fill="#c7df66" stroke="#c7df66" d="M-0.25 -179.9187817258883 L-0.25 -78.02233502538068 L-1.75 -78.02233502538068 L-1.75 -179.9187817258883 z"/>
<path fill="#c7df66" stroke="#c7df66" d="M-0.25 -171.7928934010152 L-0.25 -69.8964467005076 L-0.25 -78.02233502538068 L-0.25 -179.9187817258883 z"/>
<path fill="#c7df66" stroke="#c7df66" d="M-1.75 -171.7928934010152 L-1.75 -69.89644670050758 L-0.25 -69.89644670050758 L-0.25 -171.7928934010152 z"/>
<path fill="#c7df66" stroke="#c7df66" d="M-1.75 -179.91878172588832 L-1.75 -171.79289340101528 L-0.25 -171.79289340101528 L-0.25 -179.91878172588832 z"/>
<path fill="#c7df66" stroke="#c7df66" d="M-1.75 -78.02233502538071 L-0.25 -78.02233502538071 L-0.25 -69.8964467005076 L-1.75 -69.8964467005076 z"/>
<path fill="#c7df66" stroke="#c7df66" d="M-1.75 -264.8081218274111 L-1.75 -162.91167512690353 L-1.75 -154.78578680203043 L-1.75 -256.68223350253805 z"/>
<path fill="#c7df66" stroke="#c7df66" d="M-0.25 -264.80812182741107 L-0.25 -162.91167512690353 L-1.75 -162.91167512690353 L-1.75 -264.80812182741107 z"/>
<path fill="#c7df66" stroke="#c7df66" d="M-0.25 -256.68223350253805 L-0.25 -154.78578680203043 L-0.25 -162.91167512690353 L-0.25 -264.8081218274111 z"/>
<path fill="#c7df66" stroke="#c7df66" d="M-1.75 -256.682233502538 L-1.75 -154.78578680203043 L-0.25 -154.78578680203043 L-0.25 -256.682233502538 z"/>
<path fill="#c7df66" stroke="#c7df66" d="M-1.75 -264.8081218274111 L-1.75 -256.68223350253805 L-0.25 -256.68223350253805 L-0.25 -264.8081218274111 z"/>
<path fill="#c7df66" stroke="#c7df66" d="M-1.75 -162.91167512690356 L-0.25 -162.91167512690356 L-0.25 -154.78578680203046 L-1.75 -154.78578680203046 z"/>
<path fill="#c7df66" stroke="#c7df66" d="M-1.75 -222.36345177664973 L-1.75 -120.46700507614212 L-1.75 -112.34111675126901 L-1.75 -214.23756345177662 z"/>
<path fill="#c7df66" stroke="#c7df66" d="M-0.25 -222.36345177664973 L-0.25 -120.4670050761421 L-1.75 -120.4670050761421 L-1.75 -222.36345177664973 z"/>
<path fill="#c7df66" stroke="#c7df66" d="M-0.25 -214.23756345177662 L-0.25 -112.34111675126901 L-0.25 -120.46700507614212 L-0.25 -222.36345177664973 z"/>
<path fill="#c7df66" stroke="#c7df66" d="M-1.75 -214.2375634517766 L-1.75 -112.341116751269 L-0.25 -112.341116751269 L-0.25 -214.2375634517766 z"/>
<path fill="#c7df66" stroke="#c7df66" d="M-1.75 -222.36345177664978 L-1.75 -214.23756345177662 L-0.25 -214.23756345177662 L-0.25 -222.36345177664978 z"/>
<path fill="#c7df66" stroke="#c7df66" d="M-1.75 -120.46700507614212 L-0.25 -120.46700507614212 L-0.25 -112.34111675126906 L-1.75 -112.34111675126906 z"/>
<path fill="#c7df66" stroke="#c7df66" d="M-1.75 -307.25279187817256 L-1.75 -205.35634517766493 L-1.75 -197.23045685279186 L-1.75 -299.1269035532994 z"/>
<path fill="#c7df66" stroke="#c7df66" d="M-0.25 -307.2527918781725 L-0.25 -205.3563451776649 L-1.75 -205.3563451776649 L-1.75 -307.2527918781725 z"/>
<path fill="#c7df66" stroke="#c7df66" d="M-0.25 -299.1269035532994 L-0.25 -197.23045685279186 L-0.25 -205.35634517766493 L-0.25 -307.25279187817256 z"/>
<path fill="#c7df66" stroke="#c7df66" d="M-1.75 -299.1269035532994 L-1.75 -197.23045685279183 L-0.25 -197.23045685279183 L-0.25 -299.1269035532994 z"/>
<path fill="#c7df66" stroke="#c7df66" d="M-1.75 -307.25279187817256 L-1.75 -299.1269035532995 L-0.25 -299.1269035532995 L-0.25 -307.25279187817256 z"/>
<path fill="#c7df66" stroke="#c7df66" d="M-1.75 -205.35634517766496 L-0.25 -205.35634517766496 L-0.25 -197.23045685279186 L-1.75 -197.23045685279186 z"/>
<path fill="#c7df66" stroke="#c7df66" d="M-1.75 -78.02233502538068 L-1.75 23.874111675126915 L-1.75 32.000000000000014 L-1.75 -69.8964467005076 z"/>
<path fill="#c7df66" stroke="#c7df66" d="M-0.25 -78.02233502538068 L-0.25 23.874111675126912 L-1.75 23.874111675126912 L-1.75 -78.02233502538068 z"/>
<path fill="#c7df66" stroke="#c7df66" d="M-0.25 -69.8964467005076 L-0.25 32.000000000000014 L-0.25 23.874111675126915 L-0.25 -78.02233502538068 z"/>
<path fill="#c7df66" stroke="#c7df66" d="M-1.75 -69.89644670050758 L-1.75 32.00000000000001 L-0.25 32.00000000000001 L-0.25 -69.89644670050758 z"/>
<path fill="#c7df66" stroke="#c7df66" d="M-1.75 -78.02233502538071 L-1.75 -69.8964467005076 L-0.25 -69.8964467005076 L-0.25 -78.02233502538071 z"/>
<path fill="#c7df66" stroke="#c7df66" d="M-1.75 23.874111675126905 L-0.25 23.874111675126905 L-0.25 31.999999999999996 L-1.75 31.999999999999996 z"/>
<path fill="#c7df66" stroke="#c7df66" d="M-1.75 -162.91167512690353 L-1.75 -61.01522842639592 L-1.75 -52.889340101522826 L-1.75 -154.78578680203043 z"/>
<path fill="#c7df66" stroke="#c7df66" d="M-0.25 -162.91167512690353 L-0.25 -61.015228426395915 L-1.75 -61.015228426395915 L-1.75 -162.91167512690353 z"/>
<path fill="#c7df66" stroke="#c7df66" d="M-0.25 -154.78578680203043 L-0.25 -52.889340101522826 L-0.25 -61.01522842639592 L-0.25 -162.91167512690353 z"/>
<path fill="#c7df66" stroke="#c7df66" d="M-1.75 -154.78578680203043 L-1.75 -52.88934010152282 L-0.25 -52.88934010152282 L-0.25 -154.78578680203043 z"/>
<path fill="#c7df66" stroke="#c7df66" d="M-1.75 -162.91167512690356 L-1.75 -154.78578680203046 L-0.25 -154.78578680203046 L-0.25 -162.91167512690356 z"/>
<path fill="#c7df66" stroke="#c7df66" d="M-1.75 -61.01522842639594 L-0.25 -61.01522842639594 L-0.25 -52.88934010152283 L-1.75 -52.88934010152283 z"/>
<path fill="#c7df66" stroke="#c7df66" d="M-1.75 -120.46700507614212 L-1.75 -18.5705583756345 L-1.75 -10.444670050761406 L-1.75 -112.34111675126901 z"/>
<path fill="#c7df66" stroke="#c7df66" d="M-0.25 -120.4670050761421 L-0.25 -18.5705583756345 L-1.75 -18.5705583756345 L-1.75 -120.4670050761421 z"/>
<path fill="#c7df66" stroke="#c7df66" d="M-0.25 -112.34111675126901 L-0.25 -10.444670050761406 L-0.25 -18.5705583756345 L-0.25 -120.46700507614212 z"/>
<path fill="#c7df66" stroke="#c7df66" d="M-1.75 -112.341116751269 L-1.75 -10.444670050761404 L-0.25 -10.444670050761404 L-0.25 -112.341116751269 z"/>
<path fill="#c7df66" stroke="#c7df66" d="M-1.75 -120.46700507614212 L-1.75 -112.34111675126906 L-0.25 -112.34111675126906 L-0.25 -120.46700507614212 z"/>
<path fill="#c7df66" stroke="#c7df66" d="M-1.75 -18.57055837563454 L-0.25 -18.57055837563454 L-0.25 -10.44467005076143 L-1.75 -10.44467005076143 z"/>
<path fill="#c7df66" stroke="#c7df66" d="M-1.75 -205.35634517766493 L-1.75 -103.45989847715734 L-1.75 -95.33401015228424 L-1.75 -197.23045685279186 z"/>
<path fill="#c7df66" stroke="#c7df66" d="M-0.25 -205.3563451776649 L-0.25 -103.45989847715732 L-1.75 -103.45989847715732 L-1.75 -205.3563451776649 z"/>
<path fill="#c7df66" stroke="#c7df66" d="M-0.25 -197.23045685279186 L-0.25 -95.33401015228424 L-0.25 -103.45989847715734 L-0.25 -205.35634517766493 z"/>
<path fill="#c7df66" stroke="#c7df66" d="M-1.75 -197.23045685279183 L-1.75 -95.33401015228424 L-0.25 -95.33401015228424 L-0.25 -197.23045685279183 z"/>
<path fill="#c7df66" stroke="#c7df66" d="M-1.75 -205.35634517766496 L-1.75 -197.23045685279186 L-0.25 -197.23045685279186 L-0.25 -205.35634517766496 z"/>
<path fill="#c7df66" stroke="#c7df66" d="M-1.75 -103.45989847715734 L-0.25 -103.45989847715734 L-0.25 -95.33401015228428 L-1.75 -95.33401015228428 z"/>
</svg>