<?xml version="1.0" encoding="UTF-8"?>
<!-- Generated by jsxcad -->
<!DOCTYPE svg PUBLIC "-//W3C//DTD SVG 1.1 Tiny//EN" "http://www.w3.org/Graphics/SVG/1.1/DTD/svg11-tiny.dtd">
<svg baseProfile="tiny" height="14.50000000000001mm" width="486.0000000000002mm" viewBox="-2e-323 -8.500000000000007 486.0000000000002 14.50000000000001" version="1.1" stroke="black" stroke-width=".1" fill="none" xmlns="http://www.w3.org/2000/svg">
<path fill="#a52a2a" stroke="#a52a2a" d="M0 0 L6 0 L6 0 L0 0 z"/>
<path fill="#a52a2a" stroke="#a52a2a" d="M0 -6 L0 0 L0 0 L0 -6 z"/>
<path fill="#a52a2a" stroke="#a52a2a" d="M6 -6 L0 -6 L0 -6 L6 -6 z"/>
<path fill="#a52a2a" stroke="#a52a2a" d="M6 0 L6 -6 L6 -6 L6 0 z"/>
<path fill="#a52a2a" stroke="#a52a2a" d="M0 0 L6 0 L6 -5.999999999999999 L0 -5.999999999999999 z"/>
<path fill="#a52a2a" stroke="#a52a2a" d="M6 0 L0 0 L0 -5.999999999999999 L6 -5.999999999999999 z"/>
<path fill="#a52a2a" stroke="#a52a2a" d="M48 8.5 L48 8.5 L54 8.5 L54 8.5 z"/>
<path fill="#a52a2a" stroke="#a52a2a" d="M48 2.5 L48 2.5 L48 8.5 L48 8.5 z"/>
<path fill="#a52a2a" stroke="#a52a2a" d="M54 2.5 L54 2.5 L48 2.5 L48 2.5 z"/>
<path fill="#a52a2a" stroke="#a52a2a" d="M54 8.5 L54 8.5 L54 2.5 L54 2.5 z"/>
<path fill="#a52a2a" stroke="#a52a2a" d="M48 8.499999999999998 L54 8.499999999999998 L54 2.4999999999999996 L48 2.4999999999999996 z"/>
<path fill="#a52a2a" stroke="#a52a2a" d="M48 8.499999999999998 L48 2.4999999999999996 L54 2.4999999999999996 L54 8.499999999999998 z"/>
<path fill="#a52a2a" stroke="#a52a2a" d="M96 8.5 L96 8.5 L102 8.5 L102 8.5 z"/>
<path fill="#a52a2a" stroke="#a52a2a" d="M96 2.5 L96 2.5 L96 8.5 L96 8.5 z"/>
<path fill="#a52a2a" stroke="#a52a2a" d="M102 2.5 L102 2.5 L96 2.5 L96 2.5 z"/>
<path fill="#a52a2a" stroke="#a52a2a" d="M102 8.5 L102 8.5 L102 2.5 L102 2.5 z"/>
<path fill="#a52a2a" stroke="#a52a2a" d="M96 8.499999999999998 L102 8.499999999999998 L102 2.4999999999999996 L96 2.4999999999999996 z"/>
<path fill="#a52a2a" stroke="#a52a2a" d="M96 8.499999999999998 L96 2.4999999999999996 L102 2.4999999999999996 L102 8.499999999999998 z"/>
<path fill="#a52a2a" stroke="#a52a2a" d="M144 8.5 L144 8.5 L150 8.5 L150 8.5 z"/>
<path fill="#a52a2a" stroke="#a52a2a" d="M144 2.5 L144 2.5 L144 8.5 L144 8.5 z"/>
<path fill="#a52a2a" stroke="#a52a2a" d="M150 2.5 L150 2.5 L144 2.5 L144 2.5 z"/>
<path fill="#a52a2a" stroke="#a52a2a" d="M150 8.5 L150 8.5 L150 2.5 L150 2.5 z"/>
<path fill="#a52a2a" stroke="#a52a2a" d="M144 8.499999999999998 L150 8.499999999999998 L150 2.4999999999999996 L144 2.4999999999999996 z"/>
<path fill="#a52a2a" stroke="#a52a2a" d="M144 8.499999999999998 L144 2.4999999999999996 L150 2.4999999999999996 L150 8.499999999999998 z"/>
<path fill="#a52a2a" stroke="#a52a2a" d="M192 8.5 L192 8.5 L198 8.5 L198 8.5 z"/>
<path fill="#a52a2a" stroke="#a52a2a" d="M192 2.5 L192 2.5 L192 8.5 L192 8.5 z"/>
<path fill="#a52a2a" stroke="#a52a2a" d="M198 2.5 L198 2.5 L192 2.5 L192 2.5 z"/>
<path fill="#a52a2a" stroke="#a52a2a" d="M198 8.5 L198 8.5 L198 2.5 L198 2.5 z"/>
<path fill="#a52a2a" stroke="#a52a2a" d="M192 8.499999999999998 L198 8.499999999999998 L198 2.4999999999999996 L192 2.4999999999999996 z"/>
<path fill="#a52a2a" stroke="#a52a2a" d="M192 8.499999999999998 L192 2.4999999999999996 L198 2.4999999999999996 L198 8.499999999999998 z"/>
<path fill="#a52a2a" stroke="#a52a2a" d="M240 8.5 L240 8.5 L246 8.5 L246 8.5 z"/>
<path fill="#a52a2a" stroke="#a52a2a" d="M240 2.5 L240 2.5 L240 8.5 L240 8.5 z"/>
<path fill="#a52a2a" stroke="#a52a2a" d="M246 2.5 L246 2.5 L240 2.5 L240 2.5 z"/>
<path fill="#a52a2a" stroke="#a52a2a" d="M246 8.5 L246 8.5 L246 2.5 L246 2.5 z"/>
<path fill="#a52a2a" stroke="#a52a2a" d="M240 8.499999999999998 L246 8.499999999999998 L246 2.4999999999999996 L240 2.4999999999999996 z"/>
<path fill="#a52a2a" stroke="#a52a2a" d="M240 8.499999999999998 L240 2.4999999999999996 L246 2.4999999999999996 L246 8.499999999999998 z"/>
<path fill="#a52a2a" stroke="#a52a2a" d="M288 8.5 L288 8.5 L294 8.5 L294 8.5 z"/>
<path fill="#a52a2a" stroke="#a52a2a" d="M288 2.5 L288 2.5 L288 8.5 L288 8.5 z"/>
<path fill="#a52a2a" stroke="#a52a2a" d="M294 2.5 L294 2.5 L288 2.5 L288 2.5 z"/>
<path fill="#a52a2a" stroke="#a52a2a" d="M294 8.5 L294 8.5 L294 2.5 L294 2.5 z"/>
<path fill="#a52a2a" stroke="#a52a2a" d="M288 8.499999999999998 L294 8.499999999999998 L294 2.4999999999999996 L288 2.4999999999999996 z"/>
<path fill="#a52a2a" stroke="#a52a2a" d="M288 8.499999999999998 L288 2.4999999999999996 L294 2.4999999999999996 L294 8.499999999999998 z"/>
<path fill="#a52a2a" stroke="#a52a2a" d="M336 8.5 L336 8.5 L342 8.5 L342 8.5 z"/>
<path fill="#a52a2a" stroke="#a52a2a" d="M336 2.5 L336 2.5 L336 8.5 L336 8.5 z"/>
<path fill="#a52a2a" stroke="#a52a2a" d="M342 2.5 L342 2.5 L336 2.5 L336 2.5 z"/>
<path fill="#a52a2a" stroke="#a52a2a" d="M342 8.5 L342 8.5 L342 2.5 L342 2.5 z"/>
<path fill="#a52a2a" stroke="#a52a2a" d="M336 8.499999999999998 L342 8.499999999999998 L342 2.4999999999999996 L336 2.4999999999999996 z"/>
<path fill="#a52a2a" stroke="#a52a2a" d="M336 8.499999999999998 L336 2.4999999999999996 L342 2.4999999999999996 L342 8.499999999999998 z"/>
<path fill="#a52a2a" stroke="#a52a2a" d="M384 8.5 L384 8.5 L390 8.5 L390 8.5 z"/>
<path fill="#a52a2a" stroke="#a52a2a" d="M384 2.5 L384 2.5 L384 8.5 L384 8.5 z"/>
<path fill="#a52a2a" stroke="#a52a2a" d="M390 2.5 L390 2.5 L384 2.5 L384 2.5 z"/>
<path fill="#a52a2a" stroke="#a52a2a" d="M390 8.5 L390 8.5 L390 2.5 L390 2.5 z"/>
<path fill="#a52a2a" stroke="#a52a2a" d="M384 8.499999999999998 L390 8.499999999999998 L390 2.4999999999999996 L384 2.4999999999999996 z"/>
<path fill="#a52a2a" stroke="#a52a2a" d="M384 8.499999999999998 L384 2.4999999999999996 L390 2.4999999999999996 L390 8.499999999999998 z"/>
<path fill="#a52a2a" stroke="#a52a2a" d="M432 8.5 L432 8.5 L438 8.5 L438 8.5 z"/>
<path fill="#a52a2a" stroke="#a52a2a" d="M432 2.5 L432 2.5 L432 8.5 L432 8.5 z"/>
<path fill="#a52a2a" stroke="#a52a2a" d="M438 2.5 L438 2.5 L432 2.5 L432 2.5 z"/>
<path fill="#a52a2a" stroke="#a52a2a" d="M438 8.5 L438 8.5 L438 2.5 L438 2.5 z"/>
<path fill="#a52a2a" stroke="#a52a2a" d="M432 8.499999999999998 L438 8.499999999999998 L438 2.4999999999999996 L432 2.4999999999999996 z"/>
<path fill="#a52a2a" stroke="#a52a2a" d="M432 8.499999999999998 L432 2.4999999999999996 L438 2.4999999999999996 L438 8.499999999999998 z"/>
<path fill="#a52a2a" stroke="#a52a2a" d="M480 8.5 L480 8.5 L486 8.5 L486 8.5 z"/>
<path fill="#a52a2a" stroke="#a52a2a" d="M480 2.5 L480 2.5 L480 8.5 L480 8.5 z"/>
<path fill="#a52a2a" stroke="#a52a2a" d="M486 2.5 L486 2.5 L480 2.5 L480 2.5 z"/>
<path fill="#a52a2a" stroke="#a52a2a" d="M486 8.5 L486 8.5 L486 2.5 L486 2.5 z"/>
<path fill="#a52a2a" stroke="#a52a2a" d="M480 8.499999999999998 L486 8.499999999999998 L486 2.4999999999999996 L480 2.4999999999999996 z"/>
<path fill="#a52a2a" stroke="#a52a2a" d="M480 8.499999999999998 L480 2.4999999999999996 L486 2.4999999999999996 L486 8.499999999999998 z"/>
</svg>